<svg xmlns="http://www.w3.org/2000/svg" width="151.628" height="68.501" viewBox="0 0 151.628 68.501">
  <g id="empty_street" transform="translate(0 0)">
    <rect id="矩形_345" data-name="矩形 345" width="4.583" height="15.864" transform="translate(132.502 27.588)" fill="#f2f2f2"/>
    <path id="路径_1382" data-name="路径 1382" d="M659.248,192.312,648.1,179.052l-22.374.2-13.572,13.22.274.176h-.1v27.5h46.886v-27.5Z" transform="translate(-519.137 -151.844)" fill="#f2f2f2"/>
    <path id="路径_1383" data-name="路径 1383" d="M771.079,179.238l-13.925,16.325v24.744h25.029V192.458Z" transform="translate(-642.102 -152.002)" fill="#e6e6e6"/>
    <rect id="矩形_346" data-name="矩形 346" width="5.112" height="4.518" transform="translate(125.099 54.621)" fill="#3f3d56"/>
    <rect id="矩形_347" data-name="矩形 347" width="5.112" height="4.446" transform="translate(125.099 46.801)" fill="#3f3d56"/>
    <rect id="矩形_348" data-name="矩形 348" width="5.112" height="4.518" transform="translate(125.099 54.621)" fill="#fff"/>
    <rect id="矩形_349" data-name="矩形 349" width="5.112" height="4.446" transform="translate(125.099 46.801)" fill="#fff"/>
    <rect id="矩形_350" data-name="矩形 350" width="5.112" height="4.518" transform="translate(102.382 53.422)" fill="#fff"/>
    <rect id="矩形_351" data-name="矩形 351" width="5.112" height="4.446" transform="translate(102.382 45.602)" fill="#fff"/>
    <rect id="矩形_352" data-name="矩形 352" width="4.583" height="15.864" transform="translate(96.337 27.588)" fill="#f2f2f2"/>
    <path id="路径_1384" data-name="路径 1384" d="M421.248,192.312,410.1,179.052l-22.374.2-13.572,13.22.274.176h-.1v27.5h46.886v-27.5Z" transform="translate(-317.302 -151.844)" fill="#f2f2f2"/>
    <path id="路径_1385" data-name="路径 1385" d="M533.079,179.238l-13.925,16.325v24.744h25.029V192.458Z" transform="translate(-440.267 -152.002)" fill="#e6e6e6"/>
    <rect id="矩形_353" data-name="矩形 353" width="5.112" height="4.518" transform="translate(88.934 54.621)" fill="#3f3d56"/>
    <rect id="矩形_354" data-name="矩形 354" width="5.112" height="4.446" transform="translate(88.934 46.801)" fill="#3f3d56"/>
    <rect id="矩形_355" data-name="矩形 355" width="5.112" height="4.518" transform="translate(88.934 54.621)" fill="#fff"/>
    <rect id="矩形_356" data-name="矩形 356" width="5.112" height="4.446" transform="translate(88.934 46.801)" fill="#fff"/>
    <rect id="矩形_357" data-name="矩形 357" width="5.112" height="4.518" transform="translate(66.218 53.422)" fill="#fff"/>
    <rect id="矩形_358" data-name="矩形 358" width="5.112" height="4.446" transform="translate(66.218 45.602)" fill="#fff"/>
    <rect id="矩形_359" data-name="矩形 359" width="6.124" height="21.198" transform="translate(57.765 13.898)" fill="#f2f2f2"/>
    <path id="路径_1386" data-name="路径 1386" d="M95.877,105.831,80.983,88.112l-29.9.273L32.951,106.05l.366.236h-.131v36.743H95.837V106.285Z" transform="translate(-27.944 -74.723)" fill="#f2f2f2"/>
    <path id="路径_1387" data-name="路径 1387" d="M245.309,88.36,226.7,110.175v33.064h33.445V106.025Z" transform="translate(-192.254 -74.933)" fill="#e6e6e6"/>
    <rect id="矩形_360" data-name="矩形 360" width="6.83" height="6.037" transform="translate(47.873 50.02)" fill="#3f3d56"/>
    <rect id="矩形_361" data-name="矩形 361" width="6.83" height="5.941" transform="translate(47.873 39.57)" fill="#3f3d56"/>
    <rect id="矩形_362" data-name="矩形 362" width="6.83" height="6.037" transform="translate(47.873 50.02)" fill="#fff"/>
    <rect id="矩形_363" data-name="矩形 363" width="6.83" height="5.941" transform="translate(47.873 39.57)" fill="#fff"/>
    <rect id="矩形_364" data-name="矩形 364" width="6.83" height="6.037" transform="translate(17.519 48.418)" fill="#fff"/>
    <rect id="矩形_365" data-name="矩形 365" width="6.83" height="5.941" transform="translate(17.519 37.968)" fill="#fff"/>
    <rect id="矩形_366" data-name="矩形 366" width="146.475" height="0.304" transform="translate(0 68.169)" fill="#3f3d56"/>
    <ellipse id="椭圆_386" data-name="椭圆 386" cx="4.422" cy="9.022" rx="4.422" ry="9.022" transform="translate(18.656 44.537)" fill="#3f3d56"/>
    <path id="路径_1388" data-name="路径 1388" d="M251.214,555.279a73.522,73.522,0,0,1,0-21.318l.344.058a73.148,73.148,0,0,0,0,21.2Z" transform="translate(-227.728 -486.952)" fill="#5d83a6"/>
    <rect id="矩形_367" data-name="矩形 367" width="4.534" height="0.349" transform="translate(22.972 53.758) rotate(-28.142)" fill="#5d83a6"/>
    <rect id="矩形_368" data-name="矩形 368" width="0.349" height="4.535" transform="translate(18.752 52.998) rotate(-61.842)" fill="#5d83a6"/>
    <ellipse id="椭圆_387" data-name="椭圆 387" cx="8.648" cy="17.646" rx="8.648" ry="17.646" transform="translate(3.805 21.999)" fill="#5d83a6"/>
    <path id="路径_1389" data-name="路径 1389" d="M180.74,443.012c-3.459-20.754-.035-41.433,0-41.64l.344.058c-.035.206-3.449,20.829,0,41.524Z" transform="translate(-167.324 -374.51)" fill="#3f3d56"/>
    <rect id="矩形_369" data-name="矩形 369" width="8.869" height="0.349" transform="translate(12.325 40.181) rotate(-28.142)" fill="#3f3d56"/>
    <rect id="矩形_370" data-name="矩形 370" width="0.349" height="8.869" transform="translate(4.072 38.402) rotate(-61.842)" fill="#3f3d56"/>
    <ellipse id="椭圆_388" data-name="椭圆 388" cx="11.835" cy="24.147" rx="11.835" ry="24.147" transform="translate(21.102 4.877)" fill="#5d83a6"/>
    <path id="路径_1390" data-name="路径 1390" d="M315.12,357.513c-4.732-28.39-.048-56.677,0-56.96l.344.058c-.048.282-4.722,28.513,0,56.844Z" transform="translate(-280.802 -289.011)" fill="#3f3d56"/>
    <rect id="矩形_371" data-name="矩形 371" width="12.137" height="0.349" transform="translate(32.792 29.814) rotate(-28.142)" fill="#3f3d56"/>
    <rect id="矩形_372" data-name="矩形 372" width="0.349" height="12.137" transform="matrix(0.472, -0.882, 0.882, 0.472, 21.497, 27.265)" fill="#3f3d56"/>
    <ellipse id="椭圆_389" data-name="椭圆 389" cx="4.422" cy="9.022" rx="4.422" ry="9.022" transform="translate(127.934 44.537)" fill="#3f3d56"/>
    <path id="路径_1391" data-name="路径 1391" d="M967.489,555.279a73.528,73.528,0,0,0,0-21.318l-.345.058a73.145,73.145,0,0,1,0,21.2Z" transform="translate(-835.541 -486.952)" fill="#5d83a6"/>
    <rect id="矩形_373" data-name="矩形 373" width="0.349" height="4.534" transform="translate(128.297 51.928) rotate(-61.858)" fill="#5d83a6"/>
    <rect id="矩形_374" data-name="矩形 374" width="4.535" height="0.349" transform="translate(132.518 54.831) rotate(-28.158)" fill="#5d83a6"/>
    <ellipse id="椭圆_390" data-name="椭圆 390" cx="8.648" cy="17.646" rx="8.648" ry="17.646" transform="translate(134.331 21.999)" fill="#5d83a6"/>
    <path id="路径_1392" data-name="路径 1392" d="M1033.757,443.012c3.459-20.754.035-41.433,0-41.64l-.344.058c.035.206,3.449,20.829,0,41.524Z" transform="translate(-891.74 -374.51)" fill="#3f3d56"/>
    <rect id="矩形_375" data-name="矩形 375" width="0.349" height="8.869" transform="translate(135.121 36.307) rotate(-61.858)" fill="#3f3d56"/>
    <rect id="矩形_376" data-name="矩形 376" width="8.869" height="0.349" transform="translate(143.377 42.278) rotate(-28.158)" fill="#3f3d56"/>
    <ellipse id="椭圆_391" data-name="椭圆 391" cx="11.835" cy="24.147" rx="11.835" ry="24.147" transform="translate(110.662 4.877)" fill="#5d83a6"/>
    <path id="路径_1393" data-name="路径 1393" d="M896.2,357.513c4.732-28.39.048-56.677,0-56.96l-.344.058c.048.282,4.722,28.513,0,56.844Z" transform="translate(-775.086 -289.011)" fill="#3f3d56"/>
    <rect id="矩形_377" data-name="矩形 377" width="0.349" height="12.137" transform="translate(111.774 24.399) rotate(-61.858)" fill="#3f3d56"/>
    <rect id="矩形_378" data-name="矩形 378" width="12.137" height="0.349" transform="matrix(0.882, -0.472, 0.472, 0.882, 123.07, 32.685)" fill="#3f3d56"/>
    <path id="路径_1394" data-name="路径 1394" d="M679.008,319.731l1.4-1.119a1.482,1.482,0,0,0-1.716.942,2.383,2.383,0,0,0-1.773.109l2.8,1.016a2.118,2.118,0,0,0-.709-.949Z" transform="translate(-589.416 -304.312)" fill="#3f3d56"/>
    <path id="路径_1395" data-name="路径 1395" d="M454.008,254.731l1.4-1.119a1.482,1.482,0,0,0-1.716.942,2.383,2.383,0,0,0-1.773.109l2.8,1.016A2.118,2.118,0,0,0,454.008,254.731Z" transform="translate(-398.606 -249.189)" fill="#3f3d56"/>
    <path id="路径_1396" data-name="路径 1396" d="M821.008,225.731l1.4-1.119a1.482,1.482,0,0,0-1.716.942,2.383,2.383,0,0,0-1.773.109l2.8,1.016A2.118,2.118,0,0,0,821.008,225.731Z" transform="translate(-709.839 -224.596)" fill="#3f3d56"/>
    <path id="路径_1397" data-name="路径 1397" d="M824.122,659.954a2.116,2.116,0,0,0-1.059.284,2.277,2.277,0,0,0-3.8,1.691h6.982A2.126,2.126,0,0,0,824.122,659.954Z" transform="translate(-710.129 -593.542)" fill="#3f3d56"/>
    <path id="路径_1398" data-name="路径 1398" d="M357.123,659.954a2.115,2.115,0,0,0-1.059.284,2.277,2.277,0,0,0-3.8,1.691h6.982A2.126,2.126,0,0,0,357.123,659.954Z" transform="translate(-314.091 -593.542)" fill="#3f3d56"/>
    <path id="路径_1399" data-name="路径 1399" d="M596.122,659.954a2.116,2.116,0,0,0-1.059.284,2.277,2.277,0,0,0-3.8,1.691h6.982A2.126,2.126,0,0,0,596.122,659.954Z" transform="translate(-516.774 -593.542)" fill="#3f3d56"/>
    <path id="路径_1400" data-name="路径 1400" d="M359.335,404.228H339.191v.65h3.142v6.173h.65v-6.173h12.236v6.173h.65v-6.173h3.466Z" transform="translate(-287.65 -342.804)" fill="#3f3d56"/>
    <rect id="矩形_379" data-name="矩形 379" width="20.144" height="0.65" transform="translate(51.581 59.48)" fill="#3f3d56"/>
    <rect id="矩形_380" data-name="矩形 380" width="20.144" height="0.65" transform="translate(51.581 57.855)" fill="#3f3d56"/>
    <rect id="矩形_381" data-name="矩形 381" width="20.144" height="0.65" transform="translate(51.581 56.231)" fill="#3f3d56"/>
    <path id="路径_1401" data-name="路径 1401" d="M566.335,404.228H546.191v.65h3.142v6.173h.65v-6.173h12.236v6.173h.65v-6.173h3.466Z" transform="translate(-463.196 -342.804)" fill="#3f3d56"/>
    <rect id="矩形_382" data-name="矩形 382" width="20.144" height="0.65" transform="translate(83.035 59.48)" fill="#3f3d56"/>
    <rect id="矩形_383" data-name="矩形 383" width="20.144" height="0.65" transform="translate(83.035 57.855)" fill="#3f3d56"/>
    <rect id="矩形_384" data-name="矩形 384" width="20.144" height="0.65" transform="translate(83.035 56.231)" fill="#3f3d56"/>
  </g>
</svg>
