<svg xmlns="http://www.w3.org/2000/svg" xmlns:xlink="http://www.w3.org/1999/xlink" width="64" height="64" viewBox="0 0 64 64">
  <defs>
    <clipPath id="clip-path">
      <rect id="矩形_78" data-name="矩形 78" width="64" height="64" transform="translate(3914.478 1114.421)" fill="#fff" stroke="#707070" stroke-width="1"/>
    </clipPath>
  </defs>
  <g id="蒙版组_6" data-name="蒙版组 6" transform="translate(-3914.478 -1114.421)" clip-path="url(#clip-path)">
    <g id="undraw_camping_noc8" transform="translate(3914.879 1115.76)">
      <path id="路径_401" data-name="路径 401" d="M107.561,54.942l1.4-1.72q-.191-1.711-.537-3.387l-.8.5.715-.881c-.3-1.376-.563-2.264-.563-2.264a30.052,30.052,0,0,0-4.266,7.667l.9,2.917L103.178,55.9a14.68,14.68,0,0,0-.346,1.5c-.889,5.12-.253,9.629,1.421,10.071s3.753-3.352,4.642-8.472a20.038,20.038,0,0,0,.137-4.967Z" transform="translate(-51.329 -20.391)" fill="#86ab89"/>
      <path id="路径_402" data-name="路径 402" d="M112.223,60.38l1.916-.584q.554-1.586.961-3.241l-.889-.082.981-.3c.324-1.367.468-2.3.468-2.3a21.776,21.776,0,0,0-6.869,3.847l-.453,3.071-.268-2.39a11.278,11.278,0,0,0-.924,1.062c-2.91,3.817-4.257,8.082-3.008,9.526s4.618-.479,7.528-4.3a17.084,17.084,0,0,0,2.2-4.165Z" transform="translate(-51.844 -22.255)" fill="#86ab89"/>
      <path id="路径_403" data-name="路径 403" d="M81.954,28.9l.471-4.553a51.594,51.594,0,0,0-3.975-4.291l-.722,1.872.241-2.331c-1.731-1.632-2.962-2.578-2.962-2.578a68.006,68.006,0,0,0,.817,17.511L79.9,37.6l-3.6-1.046a26.772,26.772,0,0,0,.887,2.726c3.471,8.907,8.645,14.732,11.558,13.009s2.46-10.34-1.01-19.247a31.447,31.447,0,0,0-4.449-7.609Z" transform="translate(-39.865 -11.984)" fill="#86ab89"/>
      <path id="路径_404" data-name="路径 404" d="M97.241,27.064l2.313-3.6q-.659-3.156-1.6-6.2l-1.4,1.142,1.184-1.842c-.8-2.5-1.454-4.093-1.454-4.093A60.117,60.117,0,0,0,89.632,27.98l2.2,5.227-2.64-3.186a28.4,28.4,0,0,0-.384,2.9c-.766,9.835,1.22,18.117,4.436,18.5s6.444-7.285,7.21-17.12a37.711,37.711,0,0,0-.617-9.347Z" transform="translate(-45.615 -10.718)" fill="#86ab89"/>
      <path id="路径_405" data-name="路径 405" d="M24.135,30.353,23.9,25.576a47.892,47.892,0,0,0-4.748-3.447l-.445,2.09-.12-2.446c-2.031-1.259-3.44-1.934-3.44-1.934a69.164,69.164,0,0,0,3.593,17.746L23.4,39.76l-3.849-.213a25.68,25.68,0,0,0,1.338,2.581c4.957,8.3,11.175,13.028,13.888,10.568s.894-11.182-4.064-19.479a29.376,29.376,0,0,0-5.756-6.733Z" transform="translate(-15.148 -12.771)" fill="#86ab89"/>
      <path id="路径_406" data-name="路径 406" d="M41.519,24.765l1.8-4.238q-1.171-3.076-2.618-5.974l-1.258,1.506.924-2.17c-1.21-2.371-2.133-3.847-2.133-3.847a67.469,67.469,0,0,0-4.37,17.48l3.078,4.83-3.206-2.634a30.009,30.009,0,0,0,.063,3.062c.763,10.26,4.1,18.27,7.456,17.892s5.456-9,4.693-19.263a38.052,38.052,0,0,0-2.1-9.43Z" transform="translate(-22.849 -10.041)" fill="#86ab89"/>
      <ellipse id="椭圆_76" data-name="椭圆 76" cx="2.379" cy="0.837" rx="2.379" ry="0.837" transform="translate(26.382 55.935)" fill="#e6e6e6"/>
      <ellipse id="椭圆_77" data-name="椭圆 77" cx="2.379" cy="0.837" rx="2.379" ry="0.837" transform="translate(52.276 59.201)" fill="#e6e6e6"/>
      <ellipse id="椭圆_78" data-name="椭圆 78" cx="2.379" cy="0.837" rx="2.379" ry="0.837" transform="translate(57.237 52.335)" fill="#e6e6e6"/>
      <ellipse id="椭圆_79" data-name="椭圆 79" cx="1.801" cy="0.634" rx="1.801" ry="0.634" transform="translate(48.062 50.313)" fill="#e6e6e6"/>
      <ellipse id="椭圆_80" data-name="椭圆 80" cx="1.189" cy="0.455" rx="1.189" ry="0.455" transform="translate(9.664 50.074)" fill="#e6e6e6"/>
      <ellipse id="椭圆_81" data-name="椭圆 81" cx="1.189" cy="0.455" rx="1.189" ry="0.455" transform="translate(4.974 55.182)" fill="#e6e6e6"/>
      <ellipse id="椭圆_82" data-name="椭圆 82" cx="1.189" cy="0.455" rx="1.189" ry="0.455" transform="translate(4.974 47.143)" fill="#e6e6e6"/>
      <path id="路径_407" data-name="路径 407" d="M77.173,66.454l-11.524-.5-6.077.714-10.383,1.22-3.907.459-9.048,3.718a.177.177,0,0,1-.21-.064.294.294,0,0,1-.043-.261h0l1.569-5.114-.165-.15-4.318-3.91-.023-.021-5.6-1.052a.5.5,0,0,1-.36-.344.694.694,0,0,1,.046-.559l8.528-15.077L40.14,37.59l.486-.86,18.642-.317,18.2,29.337a.524.524,0,0,1,.033.468A.352.352,0,0,1,77.173,66.454Z" transform="translate(-20.08 -17.389)" fill="#476e94"/>
      <path id="路径_408" data-name="路径 408" d="M34.107,28.36,26.5,56.88l-4.318-3.91,2.591-17.053,4.468-7.94.013.019Z" transform="translate(-9.195 -7.796)" opacity="0.2"/>
      <path id="路径_409" data-name="路径 409" d="M44.137,51.776c-.863,2.557-1.169,4.692-2.193,4.307-1.4-.528.07-2.4.933-4.952s1.473-4.518,2.193-4.307C46.412,47.218,45,49.219,44.137,51.776Z" transform="translate(-26.016 -20.286)" fill="#3f3d56"/>
      <path id="路径_410" data-name="路径 410" d="M46.962,46.018a1.185,1.185,0,0,0-1.047-1.286c-.024,0-.047,0-.07,0l-.987-.15a.856.856,0,0,0-.451-.069l-.038-.006v.011a1.2,1.2,0,0,0-.9,1.137,1.335,1.335,0,0,0,.679,1.35l0,.023.1.013a.862.862,0,0,0,.267.042h.03l1.009.139a.871.871,0,0,0,.371.083.858.858,0,0,0,.141-.012l.086.012v-.031a1.26,1.26,0,0,0,.816-1.259Z" transform="translate(-26.884 -19.645)" fill="#456988"/>
      <path id="路径_411" data-name="路径 411" d="M46.962,46.018a1.185,1.185,0,0,0-1.047-1.286c-.024,0-.047,0-.07,0l-.987-.15a.856.856,0,0,0-.451-.069l-.038-.006v.011a1.2,1.2,0,0,0-.9,1.137,1.335,1.335,0,0,0,.679,1.35l0,.023.1.013a.862.862,0,0,0,.267.042h.03l1.009.139a.871.871,0,0,0,.371.083.858.858,0,0,0,.141-.012l.086.012v-.031a1.26,1.26,0,0,0,.816-1.259Z" transform="translate(-26.884 -19.645)" fill="#fff" opacity="0.2"/>
      <path id="路径_412" data-name="路径 412" d="M25.5,62.108l-.121-.078c3.094-7.266,11.845-22.79,11.933-22.946l.112.1C37.336,39.336,28.59,54.851,25.5,62.108Z" transform="translate(-19.389 -18.134)" fill="#3f3d56"/>
      <path id="路径_413" data-name="路径 413" d="M41.68,73.037l-.132-.044c.064-.289,6.4-28.93,8.6-33.761l.119.082C48.076,44.128,41.743,72.749,41.68,73.037Z" transform="translate(-26.092 -18.175)" fill="#3f3d56"/>
      <path id="路径_414" data-name="路径 414" d="M102.568,67.424C99.189,60.567,86.431,39.33,86.3,39.116l.11-.1c.129.214,12.891,21.457,16.273,28.321Z" transform="translate(-44.643 -18.115)" fill="#3f3d56"/>
      <ellipse id="椭圆_83" data-name="椭圆 83" cx="0.477" cy="0.756" rx="0.477" ry="0.756" transform="matrix(1, -0.002, 0.002, 1, 14.863, 54.113)" fill="#3f3d56"/>
      <ellipse id="椭圆_84" data-name="椭圆 84" cx="0.477" cy="0.756" rx="0.477" ry="0.756" transform="matrix(1, -0.002, 0.002, 1, 5.662, 42.787)" fill="#3f3d56"/>
      <ellipse id="椭圆_85" data-name="椭圆 85" cx="0.477" cy="0.756" rx="0.477" ry="0.756" transform="matrix(1, -0.002, 0.002, 1, 57.572, 48.176)" fill="#3f3d56"/>
      <path id="路径_415" data-name="路径 415" d="M44.855,36.612l25.732.34c-.037-5.39-3.6-9.734-7.97-9.731l-9.82.019c-4.108.008-7.586,3.966-7.918,9.01Z" transform="translate(-27.463 -14.828)" fill="#3f3d56"/>
      <path id="路径_416" data-name="路径 416" d="M76.2,54.768H66.8a.793.793,0,0,0-.616.316,1.206,1.206,0,0,0-.25.762l.008.847.084,9.072v.175l0,.289,0,.282.016,1.7a.985.985,0,0,0,.847,1.054l.071,0L69.2,69.1l3.231-.243,1.14-.085.254-.019,1.777-.133h0l.654-.049a1,1,0,0,0,.813-1.064V55.834a.982.982,0,0,0-.865-1.066Z" transform="translate(-36.199 -22.504)" opacity="0.2"/>
      <path id="路径_417" data-name="路径 417" d="M77.172,52.219A.227.227,0,0,0,77,52.34l-1.036,0V52a.982.982,0,0,0-.865-1.066h-9.4a.792.792,0,0,0-.616.316,1.206,1.206,0,0,0-.25.762l0,.348h-.668a.193.193,0,0,0-.14-.08c-.234,0-.423.631-.422,1.408s.192,1.406.426,1.406a.261.261,0,0,0,.2-.161L77,54.913a.226.226,0,0,0,.171.12c.234,0,.423-.631.422-1.408S77.406,52.219,77.172,52.219Z" transform="translate(-35.234 -21.436)" fill="#456988"/>
      <path id="路径_418" data-name="路径 418" d="M77.172,52.219A.226.226,0,0,0,77,52.34l-1.036,0V52a.982.982,0,0,0-.865-1.066h-9.4a.792.792,0,0,0-.616.316,1.206,1.206,0,0,0-.25.762l0,.348h-.668a.193.193,0,0,0-.14-.08c-.234,0-.423.631-.422,1.408s.192,1.406.426,1.406a.261.261,0,0,0,.2-.161L77,54.913a.226.226,0,0,0,.171.12c.234,0,.423-.631.422-1.408S77.406,52.219,77.172,52.219Z" transform="translate(-35.234 -21.436)" fill="#fff" opacity="0.2"/>
      <path id="路径_419" data-name="路径 419" d="M84,76.627h0a.487.487,0,0,1-.471.174.576.576,0,0,1-.4-.357l-.511-1.21.2-.543,1.1.864a.717.717,0,0,1,.252.511.774.774,0,0,1-.173.559Z" transform="translate(-43.12 -28.055)" fill="#ffb8b8"/>
      <path id="路径_420" data-name="路径 420" d="M87.769,86.963a.5.5,0,0,0-.462-.5.493.493,0,0,0-.453.433h0L86.4,89.6a1.339,1.339,0,0,0-.023.242.934.934,0,1,0,1.858,0,1.35,1.35,0,0,0-.032-.29Z" transform="translate(-44.675 -31.334)" fill="#3f3d56"/>
      <path id="路径_421" data-name="路径 421" d="M92.861,88.174a1.079,1.079,0,0,0-.148-.133l-1.73-1.489a.319.319,0,0,0-.479.031.488.488,0,0,0-.05.527l1.306,2.115a1.1,1.1,0,0,0,.1.144.645.645,0,0,0,1,0A.973.973,0,0,0,92.861,88.174Z" transform="translate(-46.342 -31.334)" fill="#3f3d56"/>
      <path id="路径_422" data-name="路径 422" d="M95.427,85.778H93.675a.237.237,0,0,0-.221.25.283.283,0,0,0,.172.281l1.653.63c.24.069.564-.195.564-.524C95.843,86,95.654,85.778,95.427,85.778Z" transform="translate(-47.608 -31.144)" fill="#3f3d56"/>
      <path id="路径_423" data-name="路径 423" d="M80.89,86.026a.294.294,0,0,0-.075-.186.192.192,0,0,0-.16-.064H78.9c-.221,0-.407.294-.407.623s.314.608.555.539l1.678-.63A.26.26,0,0,0,80.89,86.026Z" transform="translate(-41.408 -31.144)" fill="#3f3d56"/>
      <path id="路径_424" data-name="路径 424" d="M83.16,86.554l-1.73,1.483a.836.836,0,0,0-.149.133.944.944,0,0,0-.034,1.141l.034.041a.635.635,0,0,0,1,0,.92.92,0,0,0,.1-.143l1.307-2.1a.475.475,0,0,0-.05-.523.322.322,0,0,0-.481-.029Z" transform="translate(-42.475 -31.334)" fill="#3f3d56"/>
      <path id="路径_425" data-name="路径 425" d="M87.944,82.355a.267.267,0,0,0,.032-.123c0-.26-.415-.44-.929-.44s-.929.18-.929.44a.259.259,0,0,0,.023.1l.453,1.151h0a.509.509,0,0,0,.453.184c.241,0,.441-.094.462-.214Z" transform="translate(-44.567 -30.034)" fill="#3f3d56"/>
      <path id="路径_426" data-name="路径 426" d="M92.6,82.642a1.285,1.285,0,0,0-1,0,.764.764,0,0,0-.1.061l-1.306.9c-.089.071-.068.165.05.224a.642.642,0,0,0,.479.013l1.73-.633a1.285,1.285,0,0,0,.148-.057C92.872,83.037,92.876,82.784,92.6,82.642Z" transform="translate(-46.234 -30.242)" fill="#3f3d56"/>
      <path id="路径_427" data-name="路径 427" d="M95.582,84.222c0-.14-.323-.252-.564-.223l-1.653.268c-.1.017-.172.057-.172.119s.108.106.221.106h1.752C95.393,84.492,95.582,84.4,95.582,84.222Z" transform="translate(-47.5 -30.647)" fill="#3f3d56"/>
      <path id="路径_428" data-name="路径 428" d="M80.468,84.267,78.79,84c-.241-.029-.555.089-.555.229s.186.265.407.265h1.752c.122,0,.235-.041.235-.106S80.577,84.284,80.468,84.267Z" transform="translate(-41.3 -30.647)" fill="#3f3d56"/>
      <path id="路径_429" data-name="路径 429" d="M83.38,83.827c.122-.06.137-.15.05-.222l-1.307-.894a.647.647,0,0,0-.1-.061,1.258,1.258,0,0,0-1,0l-.034.018c-.246.139-.231.356.034.485a1,1,0,0,0,.149.057l1.73.63A.65.65,0,0,0,83.38,83.827Z" transform="translate(-42.367 -30.244)" fill="#3f3d56"/>
      <path id="路径_430" data-name="路径 430" d="M88.728,78.967c0,3.33-1.506,3.391-3.364,3.391S80.456,81.7,82,78.967c1.629-2.882,4.423-8.375,3.364-8.666C85.364,70.3,88.728,75.637,88.728,78.967Z" transform="translate(-42.685 -26.832)" fill="#f9a825"/>
      <path id="路径_431" data-name="路径 431" d="M88.064,83.83c0,1.318-.6,1.342-1.332,1.342S84.79,84.911,85.4,83.83c.645-1.141,1.751-3.315,1.332-3.43A8.973,8.973,0,0,1,88.064,83.83Z" transform="translate(-44.201 -29.646)" fill="#ff6584" opacity="0.5"/>
      <path id="路径_432" data-name="路径 432" d="M77.131,71.112v.6a1,1,0,0,1-.813,1.064l-9.29.7a.775.775,0,0,1-.642-.283,1.191,1.191,0,0,1-.276-.768l-.022-2.447,5.62-.112Z" transform="translate(-36.264 -26.709)" fill="#3f3d56"/>
      <path id="路径_433" data-name="路径 433" d="M78.677,72.315l-4.191-2.682a.187.187,0,0,1-.078-.122L73.5,65a1.146,1.146,0,0,1,.563-1.284l.219-.094a.315.315,0,0,1,.3.027.459.459,0,0,1,.189.288l.9,3.975a.2.2,0,0,0,.05.095l3.415,3.486a.221.221,0,0,1,.029.252l-.285.513A.137.137,0,0,1,78.677,72.315Z" transform="translate(-39.325 -24.962)" fill="#e6e6e6"/>
      <path id="路径_434" data-name="路径 434" d="M73.085,62.994a8.841,8.841,0,0,0-6.441-1.587,9.2,9.2,0,0,0,1.164-3.757,2.162,2.162,0,0,1,.623-1.666,1.7,1.7,0,0,1,1.148-.467h0a1.306,1.306,0,0,1,1.169-.057,1.4,1.4,0,0,1,.713.87,1.3,1.3,0,0,0,.489.616,1.593,1.593,0,0,1,.53.682,1.344,1.344,0,0,1-.039,1.189C73.228,59.836,73.23,61.367,73.085,62.994Z" transform="translate(-36.495 -22.666)" fill="#2f2e41"/>
      <ellipse id="椭圆_86" data-name="椭圆 86" cx="1.424" cy="1.754" rx="1.424" ry="1.754" transform="translate(32.285 33.52)" fill="#ffb8b8"/>
      <path id="路径_435" data-name="路径 435" d="M72.706,63.081l-1.661.209a15.256,15.256,0,0,0,0-3.133h1.661A4.7,4.7,0,0,0,72.706,63.081Z" transform="translate(-38.319 -24.005)" fill="#ffb8b8"/>
      <path id="路径_436" data-name="路径 436" d="M71.542,63.447q0,.275-.01.544a9.584,9.584,0,0,1-.523,3.292,3.115,3.115,0,0,1-.259.5l0,0a.32.32,0,0,1-.022.034,2.227,2.227,0,0,1-.243.309l-.68.879-.031.04-.2.163-1.022.839L66.1,68.425l0-.282,0-.289a10.572,10.572,0,0,0,1.1-3.6c.059-.386.109-.785.152-1.2.029-.284.055-.574.077-.868a.536.536,0,0,1,.071-.25h0c.1-.164.313-.161.564-.178.353-.023.7-.249,1.012-.036l.022.015.915,1.253.421-.559.02-.026.867.457a.532.532,0,0,1,.227.584Z" transform="translate(-36.265 -24.416)" fill="#e6e6e6"/>
      <path id="路径_437" data-name="路径 437" d="M69.611,72.028a2.045,2.045,0,0,1-.1.624l-.251.782L67.03,73.6l-.071,0a.985.985,0,0,1-.847-1.054l-.016-1.7,0-.282.813.425.792-.524a1.048,1.048,0,0,1,.133-.059,1.078,1.078,0,0,1,.179-.053h0c.029-.006.058-.011.088-.014a1.19,1.19,0,0,1,.945.316,1.608,1.608,0,0,1,.388.538.438.438,0,0,1,.02.045,1.884,1.884,0,0,1,.121.4A2.091,2.091,0,0,1,69.611,72.028Z" transform="translate(-36.267 -26.841)" fill="#2f2e41"/>
      <path id="路径_438" data-name="路径 438" d="M55.867,55.7l.3,1.679,1.8,1.913-1.593-2Z" transform="translate(-23.158 -15.521)" opacity="0.2"/>
      <path id="路径_439" data-name="路径 439" d="M53.03,56.8l.542,2.715,1.593.71-1.492-.919Z" transform="translate(-21.982 -15.828)" opacity="0.2"/>
      <path id="路径_440" data-name="路径 440" d="M73.32,58.279a3.158,3.158,0,0,0-3.289-.125l.136-1.5,2.305-.459Z" transform="translate(-37.899 -22.9)" fill="#2f2e41"/>
      <path id="路径_441" data-name="路径 441" d="M69.445,66.51l-7.717-1.633.095-.574,7.622,2.208Z" transform="translate(-25.588 -17.917)" fill="#3f3d56"/>
      <path id="路径_442" data-name="路径 442" d="M78.1,74.89h0a.487.487,0,0,1-.471.174.576.576,0,0,1-.4-.357l-.511-1.21.2-.543,1.1.864a.717.717,0,0,1,.252.511.774.774,0,0,1-.173.56Z" transform="translate(-40.671 -27.571)" fill="#ffb8b8"/>
      <path id="路径_443" data-name="路径 443" d="M72.77,70.578,68.579,67.9a.187.187,0,0,1-.078-.122l-.909-4.515a1.146,1.146,0,0,1,.563-1.284l.219-.094a.315.315,0,0,1,.3.027.459.459,0,0,1,.189.288l.9,3.975a.2.2,0,0,0,.05.095l3.415,3.486a.221.221,0,0,1,.029.252l-.285.513A.137.137,0,0,1,72.77,70.578Z" transform="translate(-36.877 -24.478)" fill="#e6e6e6"/>
      <path id="路径_444" data-name="路径 444" d="M87.762,77.391a.147.147,0,0,0,.168-.138l.077-.477a.178.178,0,0,0-.112-.207l-1.12-.276a.147.147,0,0,0-.168.138l-.077.477a.178.178,0,0,0,.112.207Z" transform="translate(-44.737 -28.501)" fill="#e6e6e6"/>
    </g>
  </g>
</svg>
