<svg xmlns="http://www.w3.org/2000/svg" xmlns:xlink="http://www.w3.org/1999/xlink" width="64" height="69" viewBox="0 0 64 69">
  <defs>
    <clipPath id="clip-path">
      <rect id="矩形_93" data-name="矩形 93" width="64" height="69" transform="translate(3538 942.537)" fill="#fff" stroke="#707070" stroke-width="1"/>
    </clipPath>
  </defs>
  <g id="蒙版组_8" data-name="蒙版组 8" transform="translate(-3538 -942.537)" clip-path="url(#clip-path)">
    <g id="undraw_barbecue_3x93" transform="translate(3538 947.481)">
      <ellipse id="椭圆_98" data-name="椭圆 98" cx="31.792" cy="2.131" rx="31.792" ry="2.131" transform="translate(0 55.237)" fill="#e6e6e6"/>
      <rect id="矩形_81" data-name="矩形 81" width="1.066" height="0.622" transform="translate(31.26 34.102)" fill="#3f3d56"/>
      <rect id="矩形_82" data-name="矩形 82" width="1.066" height="0.622" transform="translate(33.391 34.102)" fill="#3f3d56"/>
      <rect id="矩形_83" data-name="矩形 83" width="1.066" height="0.622" transform="translate(35.522 34.102)" fill="#3f3d56"/>
      <rect id="矩形_84" data-name="矩形 84" width="1.066" height="0.622" transform="translate(37.654 34.102)" fill="#3f3d56"/>
      <rect id="矩形_85" data-name="矩形 85" width="1.066" height="0.622" transform="translate(39.785 34.102)" fill="#3f3d56"/>
      <rect id="矩形_86" data-name="矩形 86" width="1.066" height="0.622" transform="translate(41.916 34.102)" fill="#3f3d56"/>
      <rect id="矩形_87" data-name="矩形 87" width="1.066" height="0.622" transform="translate(44.048 34.102)" fill="#3f3d56"/>
      <rect id="矩形_88" data-name="矩形 88" width="1.066" height="0.622" transform="translate(46.179 34.102)" fill="#3f3d56"/>
      <rect id="矩形_89" data-name="矩形 89" width="1.066" height="0.622" transform="translate(48.31 34.102)" fill="#3f3d56"/>
      <rect id="矩形_90" data-name="矩形 90" width="1.066" height="0.622" transform="translate(50.442 34.102)" fill="#3f3d56"/>
      <rect id="矩形_91" data-name="矩形 91" width="1.066" height="0.622" transform="translate(52.573 34.102)" fill="#3f3d56"/>
      <path id="路径_461" data-name="路径 461" d="M72.288,40.4a12.788,12.788,0,1,1-25.576,0Z" transform="translate(-16.207 -5.904)" fill="#363444"/>
      <path id="路径_462" data-name="路径 462" d="M70.049,42.88,61.914,18.633A12.779,12.779,0,0,1,78.1,26.689c.086.257.164.515.234.773A12.789,12.789,0,0,1,70.049,42.88Z" transform="translate(-14.586 -8.297)" fill="#363444"/>
      <circle id="椭圆_99" data-name="椭圆 99" cx="1.598" cy="1.598" r="1.598" transform="translate(54.171 33.302)" fill="#3f3d56"/>
      <path id="路径_463" data-name="路径 463" d="M54.9,43.414a.444.444,0,1,0,0,.888h7.637a.444.444,0,1,0,0-.888Z" transform="translate(-15.381 -5.583)" fill="#456988"/>
      <path id="路径_464" data-name="路径 464" d="M49.415,53.328l-1.59.059L42.1,41.067l1.449-.674Z" transform="translate(4.49 4.307)" fill="#363444"/>
      <path id="路径_465" data-name="路径 465" d="M29.531,53.328l1.59.059,5.729-12.32L35.4,40.393Z" transform="translate(3.15 4.307)" fill="#363444"/>
      <rect id="矩形_92" data-name="矩形 92" width="13.143" height="0.888" transform="translate(36.765 50.531)" fill="#363444"/>
      <path id="路径_466" data-name="路径 466" d="M62.246,18.159a.4.4,0,0,0-.382.516l.337,1.1a.4.4,0,1,0,.765-.233l-.337-1.1a.4.4,0,0,0-.382-.283Z" transform="translate(-14.593 -8.276)" fill="#456988"/>
      <path id="路径_467" data-name="路径 467" d="M46.269,40.606a.4.4,0,1,0,0,.8h1.154a.4.4,0,1,0,0-.8Z" transform="translate(-16.297 -5.882)" fill="#456988"/>
      <path id="路径_468" data-name="路径 468" d="M55.439,37.957h-4.8c-.03,0-.059,0-.089,0a1.243,1.243,0,0,0,0,2.479c.03,0,.06,0,.091,0h4.8a1.243,1.243,0,0,0,0-2.487Z" transform="translate(-15.921 -6.165)" fill="#ff6584"/>
      <path id="路径_469" data-name="路径 469" d="M50.1,40.345c.817-.1,1.46-1.136,1.46-2.388h-.178c0,1.225-.638,2.22-1.421,2.22v.1Z" transform="translate(-15.861 -6.165)" opacity="0.2"/>
      <path id="路径_470" data-name="路径 470" d="M51.647,40.355v-.178c.783,0,1.421-1,1.421-2.22h.178C53.246,39.28,52.529,40.355,51.647,40.355Z" transform="translate(-15.681 -6.165)" opacity="0.2"/>
      <path id="路径_471" data-name="路径 471" d="M53.332,40.355v-.178c.783,0,1.421-1,1.421-2.22h.178C54.931,39.28,54.214,40.355,53.332,40.355Z" transform="translate(-15.501 -6.165)" opacity="0.2"/>
      <path id="路径_472" data-name="路径 472" d="M63.3,37.957h-4.8c-.03,0-.06,0-.089,0a1.243,1.243,0,0,0,0,2.479c.03,0,.06,0,.091,0h4.8a1.243,1.243,0,1,0,0-2.487Z" transform="translate(-15.082 -6.165)" fill="#ff6584"/>
      <path id="路径_473" data-name="路径 473" d="M57.965,40.345c.817-.1,1.46-1.136,1.46-2.388h-.178c0,1.225-.638,2.22-1.421,2.22v.1Z" transform="translate(-15.022 -6.165)" opacity="0.2"/>
      <path id="路径_474" data-name="路径 474" d="M59.511,40.355v-.178c.783,0,1.421-1,1.421-2.22h.178C61.11,39.28,60.393,40.355,59.511,40.355Z" transform="translate(-14.842 -6.165)" opacity="0.2"/>
      <path id="路径_475" data-name="路径 475" d="M61.2,40.355v-.178c.783,0,1.421-1,1.421-2.22H62.8C62.8,39.28,62.078,40.355,61.2,40.355Z" transform="translate(-14.662 -6.165)" opacity="0.2"/>
      <path id="路径_476" data-name="路径 476" d="M54.722,27.181A1.313,1.313,0,0,0,53,27.813a2.216,2.216,0,0,0,.379,2.235,10.377,10.377,0,0,1,1.4,1.936,3.235,3.235,0,0,1-1.262,3.984c-.289.183-.022.644.269.46a3.783,3.783,0,0,0,1.35-4.936,5.279,5.279,0,0,0-.693-.98A3.409,3.409,0,0,1,53.368,28.6a1.2,1.2,0,0,1,.021-.295,1.037,1.037,0,0,1,.062-.2.964.964,0,0,1,.28-.349.852.852,0,0,1,.381-.173.571.571,0,0,1,.342.055c.3.163.571-.3.269-.46Z" transform="translate(-15.555 -7.328)" fill="#e6e6e6"/>
      <path id="路径_477" data-name="路径 477" d="M61.96,30.088a1.554,1.554,0,0,0-1.555.361.944.944,0,0,0-.253.824,1.644,1.644,0,0,0,.476.841,12.312,12.312,0,0,1,1.4,1.264,1.586,1.586,0,0,1,.293.752,1.421,1.421,0,0,1-.13.711,2.613,2.613,0,0,1-1.375,1.165.268.268,0,0,0-.1.365.274.274,0,0,0,.365.1,2.457,2.457,0,0,0,1.72-2.656,2.777,2.777,0,0,0-1.115-1.488,6.246,6.246,0,0,1-.7-.6.93.93,0,0,1-.32-.682.377.377,0,0,1,.12-.225,1.033,1.033,0,0,1,.264-.175.993.993,0,0,1,.763-.04.269.269,0,0,0,.328-.186.272.272,0,0,0-.186-.328Z" transform="translate(-14.775 -7.012)" fill="#e6e6e6"/>
      <path id="路径_478" data-name="路径 478" d="M58.307,23.253a.914.914,0,0,0-.568-.219,1,1,0,0,0-.553.179,1.9,1.9,0,0,0-.733,1.1,4.331,4.331,0,0,0,.57,3.051c.247.459.534.9.782,1.353a6.007,6.007,0,0,1,.547,1.389,6.713,6.713,0,0,1,.066,3.031,4.968,4.968,0,0,1-1.425,2.673.266.266,0,0,0,.377.377,5.213,5.213,0,0,0,1.4-2.31,7.084,7.084,0,0,0,.259-3.01,6.9,6.9,0,0,0-.342-1.476,8.149,8.149,0,0,0-.678-1.384,6.333,6.333,0,0,1-1.106-2.711,2.038,2.038,0,0,1,.333-1.411c-.017.022.013-.016.014-.016q.028-.033.058-.065a1.177,1.177,0,0,1,.122-.114c-.009.007-.033.023.01-.007.021-.015.043-.029.066-.042l.056-.03.034-.016q-.039.017,0,0c.021-.007.124-.029.067-.022a.536.536,0,0,1,.058,0c.008,0,.08,0,.045,0s.032.007.033.007a.527.527,0,0,1,.068.021c-.055-.022.091.06.057.034a.275.275,0,0,0,.377,0,.268.268,0,0,0,0-.377Z" transform="translate(-15.178 -7.756)" fill="#e6e6e6"/>
      <path id="路径_479" data-name="路径 479" d="M21.035,51.814l-2.009.533L15.337,35.294l4.14-.369Z" transform="translate(1.636 3.723)" fill="#ffb9b9"/>
      <path id="路径_480" data-name="路径 480" d="M12.554,52.066l-2.055.31L8.693,35.023l4.156.085Z" transform="translate(0.927 3.734)" fill="#ffb9b9"/>
      <path id="路径_481" data-name="路径 481" d="M30.824,38.815l.19,3.542a.909.909,0,0,1-.99.954h0a.909.909,0,0,1-.824-.826l-.343-3.916-2.705-9.182.082-5.9,3.2.164Z" transform="translate(-18.401 -7.708)" fill="#ffb9b9"/>
      <path id="路径_482" data-name="路径 482" d="M32.466,46.138a11.4,11.4,0,0,0-5.575-.328,72.511,72.511,0,0,0,.328-9.51h10.9Z" transform="translate(-18.322 -6.342)" fill="#2f2e41"/>
      <path id="路径_483" data-name="路径 483" d="M39.806,46.048A17.758,17.758,0,0,1,33,47.524L29.558,36.538,38,36.374Z" transform="translate(-18.037 -6.334)" fill="#2f2e41"/>
      <path id="路径_484" data-name="路径 484" d="M43.3,61.384l-5.94.22c-.761.028-.8-.625-.657-1.373l.7-2.008c1.583,1.551,1.732,1.638,2.411-.569L41.89,59.29l1.533.263a.922.922,0,0,1,.767.911h0a.922.922,0,0,1-.888.92Z" transform="translate(-17.282 -4.064)" fill="#2f2e41"/>
      <path id="路径_485" data-name="路径 485" d="M35.172,61.384l-5.94.22c-.761.028-.8-.625-.657-1.373l.7-2.008c1.583,1.551,1.732,1.638,2.411-.569L33.76,59.29l1.533.263a.922.922,0,0,1,.767.911h0a.922.922,0,0,1-.888.92Z" transform="translate(-18.149 -4.064)" fill="#2f2e41"/>
      <circle id="椭圆_100" data-name="椭圆 100" cx="3.197" cy="3.197" r="3.197" transform="translate(15.211 0.69)" fill="#ffb9b9"/>
      <path id="路径_486" data-name="路径 486" d="M15.516,9.1,11.744,7.953l2.542-3.771,2.869,1.23Z" transform="translate(1.253 0.444)" fill="#ffb9b9"/>
      <path id="路径_487" data-name="路径 487" d="M38.684,39.422A25.258,25.258,0,0,1,26.8,38.93a40.35,40.35,0,0,0-.41-14.593,6.773,6.773,0,0,1,4.1-7.624,8.313,8.313,0,0,1,1.987-.448,3.869,3.869,0,0,1,4.155,3.475Z" transform="translate(-18.391 -8.48)" fill="#467195"/>
      <path id="路径_488" data-name="路径 488" d="M9.486,16.255l-2.705-.328.82-4.263H9.486Z" transform="translate(0.723 1.242)" fill="#467195"/>
      <path id="路径_489" data-name="路径 489" d="M36.128,13.623l-.49-.218a.837.837,0,0,0-1.149.554h0l-.683,1.233-1.7-.269.059-2.611a3.65,3.65,0,0,1,4.406-3l.046.01a5.281,5.281,0,0,1,2.47,1.437l1.048,1.192a.412.412,0,0,1-.263.681L38.44,12.8Z" transform="translate(-17.765 -9.229)" fill="#2f2e41"/>
      <path id="路径_490" data-name="路径 490" d="M46.517,33.086,44.681,34.7a.133.133,0,0,1-.176-.2l1.836-1.61-.351-.4L44.154,34.1a.133.133,0,0,1-.176-.2l1.836-1.61-.351-.4L43.627,33.5a.133.133,0,1,1-.176-.2l1.836-1.61-.439-.5-2.595,2.276a1.345,1.345,0,0,0-.286,1.668L34.135,42l.7.8,7.828-6.866a1.3,1.3,0,0,0,1.665-.043l2.626-2.3Z" transform="translate(-17.549 -6.887)" fill="#e6e6e6"/>
      <path id="路径_491" data-name="路径 491" d="M37.713,38.815l.19,3.542a.909.909,0,0,1-.99.954h0a.909.909,0,0,1-.824-.826l-.343-3.916L33.04,29.387l.082-5.9,3.2.164Z" transform="translate(-17.666 -7.708)" fill="#ffb9b9"/>
      <path id="路径_492" data-name="路径 492" d="M36.581,25.119a3.615,3.615,0,0,0-3.689-.574V20.139a1.989,1.989,0,0,1,1.989-1.989h0A1.821,1.821,0,0,1,36.7,20.014Z" transform="translate(-17.681 -8.277)" fill="#467195"/>
    </g>
  </g>
</svg>
