<svg xmlns="http://www.w3.org/2000/svg" xmlns:xlink="http://www.w3.org/1999/xlink" width="200" height="150" viewBox="0 0 200 150">
  <defs>
    <linearGradient id="linear-gradient" x1="0.5" y1="1" x2="0.5" gradientUnits="objectBoundingBox">
      <stop offset="0" stop-color="gray" stop-opacity="0.251"/>
      <stop offset="0.54" stop-color="gray" stop-opacity="0.122"/>
      <stop offset="1" stop-color="gray" stop-opacity="0.102"/>
    </linearGradient>
    <linearGradient id="linear-gradient-2" x1="9.926" x2="9.926" y2="0" xlink:href="#linear-gradient"/>
  </defs>
  <g id="rain" transform="translate(0 0.001)">
    <path id="路径_1342" data-name="路径 1342" d="M178.027,246.99c-2.628.813-5.087,2.781-5.744,5.511-.751,3.138.981,6.3,1.231,9.523.808,10.557-13.859,18-11.767,28.374.831,4.123,4.189,7.156,7.5,9.662,5.3,4,11.182,7.536,17.7,8.534,9.886,1.517,20.214-2.941,29.823-.124,7.75,2.273,13.681,8.933,21.377,11.39,5.859,1.871,12.171,1.134,18.257.376,3.282-.407,6.72-.878,9.369-2.894,4.923-3.753,5.233-11.166,8.53-16.478,5.091-8.192,16.255-9.8,25.616-8.208s18.45,5.511,27.934,5.192a12.505,12.505,0,0,0,5.871-1.369c2.15-1.237,3.6-3.417,4.886-5.574a91.794,91.794,0,0,0,12.774-44.82c.055-2.72-.039-5.558-1.288-7.958-1.58-3.037-4.737-4.854-7.879-6.076-7.547-2.941-15.884-3.422-23.279-6.738-7.133-3.2-12.909-8.809-19.121-13.617a100.709,100.709,0,0,0-41.949-19.128c-3.567-.706-7.27-1.21-10.815-.395-4.084.939-7.6,3.545-10.77,6.352-8.421,7.465-15.17,16.675-22.93,24.856a131.466,131.466,0,0,1-17.42,15.381c-2.872,2.119-5.924,4.636-9.125,6.2C183.871,246.4,181.125,246.035,178.027,246.99Z" transform="translate(-151.388 -171.041)" fill="#5e94c3" opacity="0.2"/>
    <path id="路径_1343" data-name="路径 1343" d="M378.072,138.88s-8.085,10.738-2.3,23.253-10.081,32.625-10.081,32.625" transform="translate(-313.866 -129.229)" fill="none" stroke="#535461" stroke-miterlimit="10" stroke-width="2"/>
    <path id="路径_1344" data-name="路径 1344" d="M422.447,98.373c-.642,2.763-3.715,4.41-3.715,4.41s-2.029-2.835-1.387-5.6,2.3-4.738,3.715-4.41S423.089,95.61,422.447,98.373Z" transform="translate(-354.784 -92.74)" fill="#8ed16f"/>
    <ellipse id="椭圆_323" data-name="椭圆 323" cx="1.613" cy="0.605" rx="1.613" ry="0.605" transform="translate(64.048 6.448) rotate(-76.9)" fill="#8ed16f"/>
    <ellipse id="椭圆_324" data-name="椭圆 324" cx="1.613" cy="0.605" rx="1.613" ry="0.605" transform="translate(64.048 6.448) rotate(-76.9)" opacity="0.3"/>
    <path id="路径_1345" data-name="路径 1345" d="M413.9,157.65c-2.669.962-5.721-.724-5.721-.724s1.276-3.245,3.947-4.2,5.23-.628,5.721.724S416.571,156.688,413.9,157.65Z" transform="translate(-347.625 -139.74)" fill="#8ed16f"/>
    <ellipse id="椭圆_325" data-name="椭圆 325" cx="1.613" cy="0.605" rx="1.613" ry="0.605" transform="matrix(0.94, -0.34, 0.34, 0.94, 63.58, 15.191)" fill="#8ed16f"/>
    <ellipse id="椭圆_326" data-name="椭圆 326" cx="1.613" cy="0.605" rx="1.613" ry="0.605" transform="matrix(0.94, -0.34, 0.34, 0.94, 63.58, 15.191)" opacity="0.3"/>
    <path id="路径_1346" data-name="路径 1346" d="M410.931,204.42c-2.669.962-5.721-.724-5.721-.724s1.276-3.245,3.947-4.2,5.23-.628,5.721.724S413.6,203.46,410.931,204.42Z" transform="translate(-345.264 -176.726)" fill="#8ed16f"/>
    <ellipse id="椭圆_327" data-name="椭圆 327" cx="1.613" cy="0.605" rx="1.613" ry="0.605" transform="translate(63.001 25.12) rotate(-19.8)" fill="#8ed16f"/>
    <ellipse id="椭圆_328" data-name="椭圆 328" cx="1.613" cy="0.605" rx="1.613" ry="0.605" transform="translate(63.001 25.12) rotate(-19.8)" opacity="0.3"/>
    <path id="路径_1347" data-name="路径 1347" d="M425.841,259.29c-2.669.962-5.721-.724-5.721-.724s1.276-3.245,3.947-4.2,5.23-.628,5.721.724S428.511,258.334,425.841,259.29Z" transform="translate(-357.116 -219.995)" fill="#8ed16f"/>
    <ellipse id="椭圆_329" data-name="椭圆 329" cx="1.613" cy="0.605" rx="1.613" ry="0.605" transform="translate(66.062 36.729) rotate(-19.8)" fill="#8ed16f"/>
    <ellipse id="椭圆_330" data-name="椭圆 330" cx="1.613" cy="0.605" rx="1.613" ry="0.605" transform="translate(66.062 36.729) rotate(-19.8)" opacity="0.3"/>
    <path id="路径_1348" data-name="路径 1348" d="M416.141,309.47c-2.669.962-5.721-.724-5.721-.724s1.276-3.245,3.947-4.2,5.23-.628,5.721.724S418.813,308.51,416.141,309.47Z" transform="translate(-349.405 -259.64)" fill="#8ed16f"/>
    <ellipse id="椭圆_331" data-name="椭圆 331" cx="1.613" cy="0.605" rx="1.613" ry="0.605" transform="matrix(0.94, -0.34, 0.34, 0.94, 64.076, 47.088)" fill="#8ed16f"/>
    <ellipse id="椭圆_332" data-name="椭圆 332" cx="1.613" cy="0.605" rx="1.613" ry="0.605" transform="matrix(0.94, -0.34, 0.34, 0.94, 64.076, 47.088)" opacity="0.3"/>
    <path id="路径_1349" data-name="路径 1349" d="M369.784,169.2c1.971,2.042,5.454,1.883,5.454,1.883s.287-3.475-1.684-5.516-4.412-2.883-5.454-1.883S367.813,167.162,369.784,169.2Z" transform="translate(-315.384 -148.514)" fill="#8ed16f"/>
    <ellipse id="椭圆_333" data-name="椭圆 333" cx="0.605" cy="1.613" rx="0.605" ry="1.613" transform="matrix(0.719, -0.695, 0.695, 0.719, 54.78, 18.065)" fill="#8ed16f"/>
    <ellipse id="椭圆_334" data-name="椭圆 334" cx="0.605" cy="1.613" rx="0.605" ry="1.613" transform="matrix(0.719, -0.695, 0.695, 0.719, 54.78, 18.065)" opacity="0.3"/>
    <path id="路径_1350" data-name="路径 1350" d="M364.374,324.194c1.971,2.042,5.454,1.883,5.454,1.883s.287-3.475-1.684-5.516-4.412-2.883-5.454-1.883S362.4,322.152,364.374,324.194Z" transform="translate(-311.084 -270.907)" fill="#8ed16f"/>
    <ellipse id="椭圆_335" data-name="椭圆 335" cx="0.605" cy="1.613" rx="0.605" ry="1.613" transform="matrix(0.719, -0.695, 0.695, 0.719, 53.666, 50.668)" fill="#8ed16f"/>
    <ellipse id="椭圆_336" data-name="椭圆 336" cx="0.605" cy="1.613" rx="0.605" ry="1.613" transform="matrix(0.719, -0.695, 0.695, 0.719, 53.666, 50.668)" opacity="0.3"/>
    <path id="路径_1351" data-name="路径 1351" d="M371.488,225.155c2.54,1.268,5.767-.05,5.767-.05s-.889-3.37-3.427-4.638-5.121-1.255-5.767.05S368.948,223.887,371.488,225.155Z" transform="translate(-315.617 -192.908)" fill="#8ed16f"/>
    <ellipse id="椭圆_337" data-name="椭圆 337" cx="0.605" cy="1.613" rx="0.605" ry="1.613" transform="translate(55.342 29.635) rotate(-63.48)" fill="#8ed16f"/>
    <ellipse id="椭圆_338" data-name="椭圆 338" cx="0.605" cy="1.613" rx="0.605" ry="1.613" transform="translate(55.342 29.635) rotate(-63.48)" opacity="0.3"/>
    <path id="路径_1352" data-name="路径 1352" d="M376.58,279.725c2.54,1.268,5.767-.05,5.767-.05s-.889-3.37-3.427-4.638-5.121-1.255-5.767.05S374.051,278.47,376.58,279.725Z" transform="translate(-319.665 -236.021)" fill="#8ed16f"/>
    <ellipse id="椭圆_339" data-name="椭圆 339" cx="0.605" cy="1.613" rx="0.605" ry="1.613" transform="translate(56.388 41.093) rotate(-63.48)" fill="#8ed16f"/>
    <ellipse id="椭圆_340" data-name="椭圆 340" cx="0.605" cy="1.613" rx="0.605" ry="1.613" transform="translate(56.388 41.093) rotate(-63.48)" opacity="0.3"/>
    <path id="路径_1353" data-name="路径 1353" d="M180.027,249.21a35.261,35.261,0,0,1,6.43,36.679c-8.336,21.913,14.29,58.351,14.29,58.351s-.243-.036-.692-.115c-30.332-5.353-45.394-40.041-28.533-65.809C177.783,268.736,182.939,257.5,180.027,249.21Z" transform="translate(-153.726 -215.955)" fill="#8ed16f"/>
    <path id="路径_1354" data-name="路径 1354" d="M113,534.022s16.85-2.684,18.386,12.417,32.4,17.2,32.4,17.2l-.579.385c-25.485,16.735-49.848,10.656-46.176-11.558C118.4,544.2,118.286,535.907,113,534.022Z" transform="translate(-113 -441.042)" fill="#8ed16f"/>
    <g id="组_6" data-name="组 6" transform="translate(0 92.796)" opacity="0.3">
      <path id="路径_1355" data-name="路径 1355" d="M113,534.022s16.85-2.684,18.386,12.417,32.4,17.2,32.4,17.2l-.579.385c-25.485,16.735-49.848,10.656-46.176-11.558C118.4,544.2,118.286,535.907,113,534.022Z" transform="translate(-113 -533.838)" fill="#fff"/>
    </g>
    <ellipse id="椭圆_341" data-name="椭圆 341" cx="4.634" cy="12.089" rx="4.634" ry="12.089" transform="translate(17.402 68.377)" fill="#8ed16f"/>
    <ellipse id="椭圆_342" data-name="椭圆 342" cx="4.634" cy="12.089" rx="4.634" ry="12.089" transform="translate(17.402 68.377)" opacity="0.3"/>
    <ellipse id="椭圆_343" data-name="椭圆 343" cx="3.123" cy="6.951" rx="3.123" ry="6.951" transform="translate(9.574 116.898) rotate(-45)" fill="#8ed16f"/>
    <ellipse id="椭圆_344" data-name="椭圆 344" cx="3.123" cy="6.951" rx="3.123" ry="6.951" transform="translate(9.574 116.898) rotate(-45)" opacity="0.3"/>
    <path id="路径_1356" data-name="路径 1356" d="M403.343,358.2H293.657a5,5,0,0,0-5,5v64.29a5,5,0,0,0,5,5H403.343a5,5,0,0,0,5-5V363.2a5,5,0,0,0-5-5Z" transform="translate(-253.553 -302.145)" fill="url(#linear-gradient)"/>
    <rect id="矩形_282" data-name="矩形 282" width="116.863" height="72.536" rx="24.81" transform="translate(36.508 56.929)" fill="#5e94c3"/>
    <rect id="矩形_283" data-name="矩形 283" width="116.863" height="13.298" transform="translate(36.508 69.364)" fill="#5e94c3"/>
    <rect id="矩形_284" data-name="矩形 284" width="116.863" height="13.298" transform="translate(36.508 69.364)" opacity="0.3"/>
    <rect id="矩形_285" data-name="矩形 285" width="94.7" height="6.447" transform="translate(47.544 92.608)" fill="#d6d6e3"/>
    <circle id="椭圆_345" data-name="椭圆 345" cx="9.269" cy="9.269" r="9.269" transform="translate(46.857 105.991)" fill="#5e94c3"/>
    <circle id="椭圆_346" data-name="椭圆 346" cx="9.269" cy="9.269" r="9.269" transform="translate(46.857 105.991)" opacity="0.3"/>
    <path id="路径_1357" data-name="路径 1357" d="M822.152,220.478a2.029,2.029,0,0,0,.893,1.13c1.922,1.27,6.1,1,6.6,1,.107,0,.247.19.4.51a35.315,35.315,0,0,1,1.96,6.991c.1,1.215,1.232,6.9,3.081,9.022.057.065.113.126.167.182,1.814,1.822,3.941-.182,3.941-.182l.305-1.061c-.086.418-.182.906-.278,1.452-.048.274-.1.565-.142.864a33.107,33.107,0,0,0-.433,5.1,18.468,18.468,0,0,0,.08,1.858c.017.172.036.341.059.506a17.757,17.757,0,0,1,.138,2.268,61.65,61.65,0,0,1-1.165,10.1l.044-.015c-.027.14-.044.209-.044.209l.067-.021q-.048.312-.092.638c-.389,2.824-.613,6.338-.72,8.368a16.759,16.759,0,0,0,.142,3.2l2.042,14.373v6.694a11.816,11.816,0,0,0,.368,3.008c.665,2.529.117,11.357-.19,15.545-.086,1.142-.153,1.941-.172,2.171v.069l.059-.023v.073a1.183,1.183,0,0,1,.272-.079c-.81,1.255-2.276,3.33-3.4,3.68a3.571,3.571,0,0,0-1.7,1.128l-.029.04-.042.059a1.255,1.255,0,0,0-.245.64.708.708,0,0,1-.038-.123c-.086.467.195.893,1.075,1.1a7.237,7.237,0,0,0,1.558.126c3.054,0,8.474-.939,9.073-1.95v-3.485l.1.031v.031l.374.123,1.027-3.447c1.232-.912.209-17.235,0-20.986-.188-3.418,1.927-17.015,2.3-19.411l-.05-.061.057-.349a1.488,1.488,0,0,1,.209.184,2.739,2.739,0,0,1,.32.473,6.326,6.326,0,0,1,.454.937c2.067,5.154,3,19.894,3,21.216V308.25a14.434,14.434,0,0,0,.565,4.044,17.344,17.344,0,0,1,.439,2.1c.044.278.082.554.117.818s.071.565.1.812a1.683,1.683,0,0,0,.021.186.366.366,0,0,1,0,.086c.057.546.086.9.086.9a.21.21,0,0,1,.042-.082l.01.132a.283.283,0,0,1,.082-.13,1.981,1.981,0,0,1,.276-.226v1.761l-.05-.038v.3c2.13,1.607,5.6,2.092,8.257,2.073a10.563,10.563,0,0,0,3.609-.452c.694-.341.314-1.136-.318-1.745a2.386,2.386,0,0,0-1.531-.791c-.674.073-2.977-2.535-4.184-3.964l.136-.061.193-.084V290.791s.31-9.125,1.232-18.149a32.106,32.106,0,0,0-1.579-13.463l-.029-.086.28.044c.3.046.456.073.456.073a1.741,1.741,0,0,0-.019-.209h.019s-.36-3.914-.364-8.83c0-5.573.471-12.367,2.418-16.212a11.438,11.438,0,0,0,1.464-5.364,5.611,5.611,0,0,0-1-3.431,2.719,2.719,0,0,0-1.153-.912l-.04-.023h-.021a2.866,2.866,0,0,0-1.059-.209H857.82a2.809,2.809,0,0,1-1.389-.366l-1.646-.933a8.349,8.349,0,0,1-.51-4.077c0-.111.021-.222.031-.331l.119-.126c.092-.1.178-.209.262-.3a2.335,2.335,0,0,1-.019.247c-.021.132-.057.209-.113.226a3.634,3.634,0,0,0,2.456-.989c.023-.027.044-.056.065-.086a4.482,4.482,0,0,0,.4-.837,2.433,2.433,0,0,1,.307-.561c.138-.18.318-.326.466-.5l.025-.029a3.612,3.612,0,0,0,.565-2.347c.01-1.991-.048-4.184-1.381-5.677a6.286,6.286,0,0,0-4.548-1.768c-1.676-.054-3.347.247-5.021.255-1.138,0-2.51-.019-3.138.923-.307.462-.345,1.067-.68,1.51-.192.255-.487.475-.5.793a.814.814,0,0,0,.109.418v.015a2.959,2.959,0,0,0,2.167,1.454,5.4,5.4,0,0,0-.418.577,5.5,5.5,0,0,0-.837,2.929,3.422,3.422,0,0,0,.013.36,5.529,5.529,0,0,0,1.753,3.684c-.017.117-.033.234-.052.349l.038.033q.178.161.37.305l.046.036v.209a3.518,3.518,0,0,1-.013.364c-.013.119,0,.192-.013.289l-.027-.023-2.044-1.707-3.286-3.042s-8.217-5.981-8.629-3.138a2.048,2.048,0,0,0,.391,1.418c1.508,2.3,6.694,4.259,6.694,4.259a43.828,43.828,0,0,1,5.161,6.794c-.073.04-.146.077-.224.113a9.7,9.7,0,0,1-4.527.494c-3.1.483-3.383,3.883-3.366,5.257v.285l-4.117-9.667-.013-.029a2.035,2.035,0,0,0-1.54-1.209C828.456,219.411,821.576,218.447,822.152,220.478ZM839.387,314.4a1.8,1.8,0,0,1,.182-.033l-.019.029Z" transform="translate(-677.527 -181.435)" fill="url(#linear-gradient-2)"/>
    <path id="路径_1358" data-name="路径 1358" d="M984.463,716.43s3.9,4.9,4.8,4.8,3,1.9,1.8,2.51-8.1,1-11.505-1.6v-3.918Z" transform="translate(-802.035 -585.438)" fill="#aca9c9"/>
    <path id="路径_1359" data-name="路径 1359" d="M886.658,717.86s-2.3,4.1-3.9,4.6-3,2.3-.9,2.8,9.6-.6,10.3-1.8v-5.3Z" transform="translate(-723.313 -586.569)" fill="#aca9c9"/>
    <path id="路径_1360" data-name="路径 1360" d="M894.376,465.8l1.987,14.179v6.592a11.816,11.816,0,0,0,.36,2.966c.649,2.5.115,11.2-.186,15.333-.1,1.347-.174,2.209-.174,2.209,1.3-.6,6.8,1.3,6.8,1.3l.556-1.893.444-1.506c1.2-.9.209-17,0-20.71-.136-2.533.994-10.746,1.717-15.668.209-1.391.379-2.51.481-3.184.065-.418.1-.651.1-.651a2.188,2.188,0,0,1,.54.651,6.246,6.246,0,0,1,.441.925c2.012,5.085,2.929,19.624,2.929,20.919v13.673a14.421,14.421,0,0,0,.55,3.989,20.916,20.916,0,0,1,.542,2.88c.142,1.086.209,1.96.209,1.96.1-.6,6.3-3.3,6.3-3.3v-22.8s.3-9,1.2-17.9a31.939,31.939,0,0,0-1.151-12.045c-.249-.851-.5-1.573-.713-2.144-.366-.973-.628-1.51-.628-1.51H896.259c-.343.065-.628.755-.885,1.8-.167.7-.314,1.565-.441,2.51-.379,2.784-.6,6.251-.7,8.255A16.711,16.711,0,0,0,894.376,465.8Z" transform="translate(-734.54 -374.789)" fill="#618fd8"/>
    <g id="组_7" data-name="组 7" transform="translate(161.874 75.333)" opacity="0.1">
      <path id="路径_1361" data-name="路径 1361" d="M983.663,506.766v-22.8s.3-9,1.2-17.9a31.187,31.187,0,0,0-2.51-15.7h.4a31.37,31.37,0,0,1,2.51,15.7c-.889,8.9-1.2,17.9-1.2,17.9v22.8s-6.2,2.7-6.3,3.3a3,3,0,0,0-.031-.364A58.309,58.309,0,0,1,983.663,506.766Z" transform="translate(-962.461 -450.36)"/>
      <path id="路径_1362" data-name="路径 1362" d="M905.29,722.32a1.553,1.553,0,0,0-.55.113v-.1A3.569,3.569,0,0,1,905.29,722.32Z" transform="translate(-904.74 -665.425)"/>
      <path id="路径_1363" data-name="路径 1363" d="M936.482,560.83c1.2-.9.209-17,0-20.71s2.3-19.5,2.3-19.5a1.743,1.743,0,0,1,.345.356c-.368,2.36-2.427,15.775-2.245,19.145.209,3.7,1.2,19.8,0,20.71l-1,3.4-.364-.121Z" transform="translate(-929.081 -505.922)"/>
    </g>
    <path id="路径_1364" data-name="路径 1364" d="M843.684,285.869l-2.092,7.4s-2.2,2.092-4,0-2.908-7.7-3.017-8.9-1.7-7.4-2.3-7.4-6.6.4-7.3-2.092c-.561-2,6.138-1.046,8.819-.6a1.987,1.987,0,0,1,1.5,1.192l4.113,9.821S841.584,282.769,843.684,285.869Z" transform="translate(-679.029 -235.655)" fill="#f7c4a7"/>
    <path id="路径_1365" data-name="路径 1365" d="M937.1,249.82s-2.6,7.3.7,9.9-11.8,3.3-11.8,3.3l2.05-1.95s1.45-5.751.45-10.551Z" transform="translate(-759.679 -216.835)" fill="#f7c4a7"/>
    <path id="路径_1366" data-name="路径 1366" d="M908.287,292.049s2.65-.651,2.65-1.349l2.349,1.349h5.9s4.3,2.4.7,9.6-2,24.893-2,24.893-12.8-2.3-23.4,1.2c0,0,1.6-7.9,1-12.4s1-10.8,1-10.8l.9-3.8s-.05-3.556-3.751-1.751c0,0-.55-5.15,3.251-5.751,0,0,4.393.6,5.7-1.6A6.682,6.682,0,0,0,908.287,292.049Z" transform="translate(-734.062 -249.097)" opacity="0.1"/>
    <path id="路径_1367" data-name="路径 1367" d="M908.286,291.1s2.65-.651,2.65-1.349l1.722.989a2.719,2.719,0,0,0,1.351.36h4.127a2.72,2.72,0,0,1,2.211,1.125c.948,1.333,1.8,3.96-.46,8.476-3.6,7.2-2,24.893-2,24.893s-12.8-2.3-23.4,1.2c0,0,1.6-7.9,1-12.4s1-10.786,1-10.786l.9-3.8s-.05-3.556-3.751-1.751c0,0-.536-5.008,3.094-5.723a1.025,1.025,0,0,1,.307-.021c.776.082,4.393.343,5.552-1.617A6.714,6.714,0,0,0,908.286,291.1Z" transform="translate(-734.062 -248.346)" fill="#e14b5a"/>
    <path id="路径_1368" data-name="路径 1368" d="M951.193,309.983s-3.2,2-8.4,0c0,0-5.7-2.092-7.5-6.2s9.1.7,9.1.7a7.931,7.931,0,0,0,3-.5C948.089,303.484,952.992,307.782,951.193,309.983Z" transform="translate(-766.867 -258.159)" opacity="0.1"/>
    <path id="路径_1369" data-name="路径 1369" d="M903.116,257.79s-3.2,2-8.4,0c0,0-5.7-2.092-7.5-6.2s-6-8.608-6-8.608-7.3-2.8-6.9-5.6,8.4,3.1,8.4,3.1l3.2,3,10.4,8.8a7.931,7.931,0,0,0,3-.5C900.012,251.282,904.915,255.589,903.116,257.79Z" transform="translate(-718.79 -206.405)" fill="#f7c4a7"/>
    <path id="路径_1370" data-name="路径 1370" d="M937.49,251.951l8.6-.7a19.743,19.743,0,0,0-.9,4.073,5.5,5.5,0,0,1-7.7.209A9.774,9.774,0,0,0,937.49,251.951Z" transform="translate(-768.765 -217.971)" opacity="0.1"/>
    <circle id="椭圆_347" data-name="椭圆 347" cx="5.5" cy="5.5" r="5.5" transform="translate(167.076 27.715)" fill="#f7c4a7"/>
    <path id="路径_1371" data-name="路径 1371" d="M934.34,219.877c-.322-.531.333-1.224.117-1.805-.2-.536-.99-.628-1.255-1.128-.209-.4,0-.9-.084-1.345a1.382,1.382,0,0,0-1.326-.962,4.732,4.732,0,0,0-1.713.379,6.578,6.578,0,0,1-2.822.435,2.959,2.959,0,0,1-2.33-1.479.836.836,0,0,1-.107-.406c.017-.314.305-.529.492-.78.326-.437.364-1.033.661-1.489.607-.929,1.939-.906,3.048-.91,1.632,0,3.255-.305,4.887-.251a6.086,6.086,0,0,1,4.428,1.743c1.3,1.475,1.356,3.634,1.345,5.6a3.564,3.564,0,0,1-.55,2.316c-.151.182-.335.333-.479.519-.314.418-.4.954-.692,1.379a3.375,3.375,0,0,1-2.454,1.061c.268-.036.046-1.828,0-1.994C935.33,219.934,935.139,219.951,934.34,219.877Z" transform="translate(-758.746 -185.479)" opacity="0.1"/>
    <path id="路径_1372" data-name="路径 1372" d="M934.34,218.927c-.322-.531.333-1.224.117-1.805-.2-.536-.99-.628-1.255-1.128-.209-.4,0-.9-.084-1.345a1.382,1.382,0,0,0-1.326-.962,4.731,4.731,0,0,0-1.713.379,6.578,6.578,0,0,1-2.822.435,2.959,2.959,0,0,1-2.33-1.479.836.836,0,0,1-.107-.406c.017-.314.305-.529.492-.78.326-.437.364-1.033.661-1.489.607-.929,1.939-.906,3.048-.91,1.632,0,3.255-.305,4.887-.251a6.086,6.086,0,0,1,4.428,1.743c1.3,1.475,1.356,3.634,1.345,5.6a3.564,3.564,0,0,1-.55,2.316c-.151.182-.335.333-.479.519-.314.418-.4.954-.692,1.379a3.375,3.375,0,0,1-2.454,1.061c.268-.036.046-1.828,0-1.994C935.33,218.973,935.139,219,934.34,218.927Z" transform="translate(-758.746 -184.729)" fill="#281c1c"/>
    <path id="路径_1373" data-name="路径 1373" d="M992.017,313.346s-2.7-7-4.8-7.2,4,0,4,0l2,3.6Z" transform="translate(-807.742 -261.27)" opacity="0.1"/>
    <path id="路径_1374" data-name="路径 1374" d="M992.977,313.346s-2.7-7-4.8-7.2,4,0,4,0l2,3.6Z" transform="translate(-808.501 -261.27)" fill="#e14b5a"/>
    <path id="路径_1375" data-name="路径 1375" d="M976.65,714.959c.142,1.086.209,1.96.209,1.96.1-.6,6.3-3.3,6.3-3.3v-1.625a2.758,2.758,0,0,0-.473.023,8.921,8.921,0,0,0-3.347,1.368A30.518,30.518,0,0,1,976.65,714.959Z" transform="translate(-799.733 -581.927)" fill="#618fd8"/>
    <path id="路径_1376" data-name="路径 1376" d="M976.65,714.959c.142,1.086.209,1.96.209,1.96.1-.6,6.3-3.3,6.3-3.3v-1.625a2.758,2.758,0,0,0-.473.023,8.921,8.921,0,0,0-3.347,1.368A30.518,30.518,0,0,1,976.65,714.959Z" transform="translate(-799.733 -581.927)" opacity="0.3"/>
    <path id="路径_1377" data-name="路径 1377" d="M904.5,713.793c1.3-.6,6.8,1.3,6.8,1.3l.556-1.893c-.96-.195-1.914-.437-2.851-.726a9.49,9.49,0,0,1-1.28-.473,8.56,8.56,0,0,0-.853-.4,4.428,4.428,0,0,0-2.2-.019C904.575,712.931,904.5,713.793,904.5,713.793Z" transform="translate(-742.676 -581.502)" fill="#618fd8"/>
    <path id="路径_1378" data-name="路径 1378" d="M904.5,713.793c1.3-.6,6.8,1.3,6.8,1.3l.556-1.893c-.96-.195-1.914-.437-2.851-.726a9.49,9.49,0,0,1-1.28-.473,8.56,8.56,0,0,0-.853-.4,4.428,4.428,0,0,0-2.2-.019C904.575,712.931,904.5,713.793,904.5,713.793Z" transform="translate(-742.676 -581.502)" opacity="0.3"/>
    <path id="路径_1379" data-name="路径 1379" d="M990.805,743.84a.6.6,0,0,0,.343-.4.588.588,0,0,1-.343.7c-1.2.6-8.1,1-11.505-1.6v-.3C982.706,744.84,989.6,744.441,990.805,743.84Z" transform="translate(-801.829 -605.849)" fill="#fff" opacity="0.4"/>
    <path id="路径_1380" data-name="路径 1380" d="M881.609,744.991c2.092.5,9.6-.6,10.3-1.8v.3c-.7,1.2-8.2,2.3-10.3,1.8-.858-.209-1.132-.628-1.046-1.086C880.63,744.543,880.944,744.824,881.609,744.991Z" transform="translate(-723.115 -606.6)" fill="#fff" opacity="0.4"/>
    <path id="路径_1381" data-name="路径 1381" d="M911.683,402.353s-2.2-.7-2.8,0-5.732,2.343-5.732,2.343" transform="translate(-741.609 -337.108)" opacity="0.1"/>
    <rect id="矩形_286" data-name="矩形 286" width="10.7" height="0.226" transform="translate(156.731 37.665) rotate(180)" fill="#8ed16f"/>
    <rect id="矩形_287" data-name="矩形 287" width="10.7" height="0.226" transform="translate(156.731 37.892) rotate(180)" fill="#8ed16f"/>
    <rect id="矩形_288" data-name="矩形 288" width="10.7" height="0.226" transform="translate(156.731 37.892) rotate(180)" opacity="0.1"/>
    <rect id="矩形_289" data-name="矩形 289" width="10.7" height="0.226" transform="translate(156.731 38.119) rotate(180)" fill="#8ed16f"/>
    <rect id="矩形_290" data-name="矩形 290" width="10.7" height="0.226" transform="translate(156.731 38.343) rotate(180)" fill="#8ed16f"/>
    <rect id="矩形_291" data-name="矩形 291" width="10.7" height="0.226" transform="translate(156.731 38.343) rotate(180)" opacity="0.1"/>
    <rect id="矩形_292" data-name="矩形 292" width="10.7" height="0.226" transform="translate(156.731 38.57) rotate(180)" fill="#8ed16f"/>
    <rect id="矩形_293" data-name="矩形 293" width="10.7" height="0.226" transform="translate(156.731 38.795) rotate(180)" fill="#8ed16f"/>
    <rect id="矩形_294" data-name="矩形 294" width="10.7" height="0.226" transform="translate(156.731 38.795) rotate(180)" opacity="0.1"/>
    <rect id="矩形_295" data-name="矩形 295" width="10.7" height="0.226" transform="translate(156.731 39.021) rotate(180)" fill="#8ed16f"/>
    <rect id="矩形_296" data-name="矩形 296" width="10.7" height="0.226" transform="translate(156.731 39.246) rotate(180)" fill="#8ed16f"/>
    <rect id="矩形_297" data-name="矩形 297" width="10.7" height="0.226" transform="translate(156.731 39.246) rotate(180)" opacity="0.1"/>
    <rect id="矩形_298" data-name="矩形 298" width="10.7" height="0.226" transform="translate(156.731 35.86) rotate(180)" fill="#8ed16f"/>
    <rect id="矩形_299" data-name="矩形 299" width="10.7" height="0.226" transform="matrix(-0.769, -0.639, 0.639, -0.769, 161.716, 37.339)" fill="#8ed16f"/>
    <rect id="矩形_300" data-name="矩形 300" width="10.7" height="0.226" transform="matrix(-0.769, -0.639, 0.639, -0.769, 154.359, 33.726)" fill="#8ed16f"/>
    <rect id="矩形_301" data-name="矩形 301" width="10.7" height="0.226" transform="translate(156.731 36.084) rotate(180)" fill="#8ed16f"/>
    <rect id="矩形_302" data-name="矩形 302" width="10.7" height="0.226" transform="translate(156.731 36.084) rotate(180)" opacity="0.1"/>
    <rect id="矩形_303" data-name="矩形 303" width="10.7" height="0.226" transform="translate(156.731 36.313) rotate(180)" fill="#8ed16f"/>
    <rect id="矩形_304" data-name="矩形 304" width="10.7" height="0.226" transform="translate(156.731 36.538) rotate(180)" fill="#8ed16f"/>
    <rect id="矩形_305" data-name="矩形 305" width="10.7" height="0.226" transform="translate(156.731 36.538) rotate(180)" opacity="0.1"/>
    <rect id="矩形_306" data-name="矩形 306" width="10.7" height="0.226" transform="translate(156.731 36.762) rotate(180)" fill="#8ed16f"/>
    <rect id="矩形_307" data-name="矩形 307" width="10.7" height="0.226" transform="translate(156.731 36.989) rotate(180)" fill="#8ed16f"/>
    <rect id="矩形_308" data-name="矩形 308" width="10.7" height="0.226" transform="translate(156.731 36.989) rotate(180)" opacity="0.1"/>
    <rect id="矩形_309" data-name="矩形 309" width="10.7" height="0.226" transform="translate(156.731 37.214) rotate(180)" fill="#8ed16f"/>
    <rect id="矩形_310" data-name="矩形 310" width="10.7" height="0.226" transform="translate(156.731 37.441) rotate(180)" fill="#8ed16f"/>
    <rect id="矩形_311" data-name="矩形 311" width="10.7" height="0.226" transform="translate(156.731 37.441) rotate(180)" opacity="0.1"/>
    <rect id="矩形_312" data-name="矩形 312" width="3.899" height="7.6" transform="translate(148.614 46.937) rotate(-169.48)" fill="#8ed16f"/>
    <ellipse id="椭圆_348" data-name="椭圆 348" cx="1.6" cy="0.799" rx="1.6" ry="0.799" transform="translate(146.38 44.301) rotate(-79.48)" fill="#8ed16f"/>
    <ellipse id="椭圆_349" data-name="椭圆 349" cx="1.6" cy="0.799" rx="1.6" ry="0.799" transform="translate(146.38 44.301) rotate(-79.48)" opacity="0.1"/>
    <rect id="矩形_313" data-name="矩形 313" width="3.899" height="7.6" transform="translate(149.258 62.767) rotate(-169.48)" fill="#8ed16f"/>
    <ellipse id="椭圆_350" data-name="椭圆 350" cx="1.6" cy="0.799" rx="1.6" ry="0.799" transform="translate(147.021 60.127) rotate(-79.48)" fill="#8ed16f"/>
    <ellipse id="椭圆_351" data-name="椭圆 351" cx="1.6" cy="0.799" rx="1.6" ry="0.799" transform="translate(147.021 60.127) rotate(-79.48)" opacity="0.1"/>
    <rect id="矩形_314" data-name="矩形 314" width="3.899" height="7.6" transform="matrix(0.476, -0.879, 0.879, 0.476, 129.956, 26.602)" fill="#8ed16f"/>
    <ellipse id="椭圆_352" data-name="椭圆 352" cx="0.801" cy="1.604" rx="0.801" ry="1.604" transform="translate(133.09 26.693) rotate(-61.39)" fill="#8ed16f"/>
    <ellipse id="椭圆_353" data-name="椭圆 353" cx="0.801" cy="1.604" rx="0.801" ry="1.604" transform="translate(133.09 26.693) rotate(-61.39)" opacity="0.1"/>
    <rect id="矩形_315" data-name="矩形 315" width="3.899" height="7.6" transform="matrix(0.476, -0.879, 0.879, 0.476, 115.562, 94.529)" fill="#8ed16f"/>
    <ellipse id="椭圆_354" data-name="椭圆 354" cx="0.799" cy="1.6" rx="0.799" ry="1.6" transform="matrix(0.476, -0.879, 0.879, 0.476, 118.032, 94.608)" fill="#8ed16f"/>
    <ellipse id="椭圆_355" data-name="椭圆 355" cx="0.799" cy="1.6" rx="0.799" ry="1.6" transform="matrix(0.476, -0.879, 0.879, 0.476, 118.032, 94.608)" opacity="0.1"/>
    <rect id="矩形_316" data-name="矩形 316" width="3.899" height="7.6" transform="matrix(0.476, -0.879, 0.879, 0.476, 106.755, 38.474)" fill="#8ed16f"/>
    <ellipse id="椭圆_356" data-name="椭圆 356" cx="0.799" cy="1.6" rx="0.799" ry="1.6" transform="matrix(0.476, -0.879, 0.879, 0.476, 109.219, 38.555)" fill="#8ed16f"/>
    <ellipse id="椭圆_357" data-name="椭圆 357" cx="0.799" cy="1.6" rx="0.799" ry="1.6" transform="matrix(0.476, -0.879, 0.879, 0.476, 109.219, 38.555)" opacity="0.1"/>
    <rect id="矩形_317" data-name="矩形 317" width="3.899" height="7.6" transform="matrix(0.476, -0.879, 0.879, 0.476, 117.793, 26.601)" fill="#8ed16f"/>
    <ellipse id="椭圆_358" data-name="椭圆 358" cx="0.799" cy="1.6" rx="0.799" ry="1.6" transform="matrix(0.476, -0.879, 0.879, 0.476, 120.263, 26.594)" fill="#8ed16f"/>
    <ellipse id="椭圆_359" data-name="椭圆 359" cx="0.799" cy="1.6" rx="0.799" ry="1.6" transform="matrix(0.476, -0.879, 0.879, 0.476, 120.263, 26.594)" opacity="0.1"/>
    <rect id="矩形_318" data-name="矩形 318" width="3.899" height="7.6" transform="matrix(0.994, -0.109, 0.109, 0.994, 126.88, 37.606)" fill="#8ed16f"/>
    <ellipse id="椭圆_360" data-name="椭圆 360" cx="0.799" cy="1.6" rx="0.799" ry="1.6" transform="matrix(0.994, -0.109, 0.109, 0.994, 128.221, 39.678)" fill="#8ed16f"/>
    <ellipse id="椭圆_361" data-name="椭圆 361" cx="0.799" cy="1.6" rx="0.799" ry="1.6" transform="matrix(0.994, -0.109, 0.109, 0.994, 128.221, 39.678)" opacity="0.1"/>
    <rect id="矩形_319" data-name="矩形 319" width="3.899" height="7.6" transform="matrix(0.994, -0.109, 0.109, 0.994, 152.955, 79.128)" fill="#8ed16f"/>
    <ellipse id="椭圆_362" data-name="椭圆 362" cx="0.799" cy="1.6" rx="0.799" ry="1.6" transform="matrix(0.994, -0.109, 0.109, 0.994, 154.304, 81.195)" fill="#8ed16f"/>
    <ellipse id="椭圆_363" data-name="椭圆 363" cx="0.799" cy="1.6" rx="0.799" ry="1.6" transform="matrix(0.994, -0.109, 0.109, 0.994, 154.304, 81.195)" opacity="0.1"/>
    <rect id="矩形_320" data-name="矩形 320" width="3.899" height="7.6" transform="matrix(0.476, -0.879, 0.879, 0.476, 113.927, 56.717)" fill="#8ed16f"/>
    <ellipse id="椭圆_364" data-name="椭圆 364" cx="0.799" cy="1.6" rx="0.799" ry="1.6" transform="matrix(0.476, -0.879, 0.879, 0.476, 116.393, 56.8)" fill="#8ed16f"/>
    <ellipse id="椭圆_365" data-name="椭圆 365" cx="0.799" cy="1.6" rx="0.799" ry="1.6" transform="matrix(0.476, -0.879, 0.879, 0.476, 116.393, 56.8)" opacity="0.1"/>
    <rect id="矩形_321" data-name="矩形 321" width="3.899" height="7.6" transform="matrix(0.476, -0.879, 0.879, 0.476, 97.384, 51.882)" fill="#8ed16f"/>
    <ellipse id="椭圆_366" data-name="椭圆 366" cx="0.801" cy="1.604" rx="0.801" ry="1.604" transform="translate(100.384 52.181) rotate(-61.39)" fill="#8ed16f"/>
    <ellipse id="椭圆_367" data-name="椭圆 367" cx="0.801" cy="1.604" rx="0.801" ry="1.604" transform="translate(100.384 52.181) rotate(-61.39)" opacity="0.1"/>
    <rect id="矩形_322" data-name="矩形 322" width="3.899" height="7.6" transform="matrix(0.476, -0.879, 0.879, 0.476, 92.086, 133.332)" fill="#8ed16f"/>
    <ellipse id="椭圆_368" data-name="椭圆 368" cx="0.799" cy="1.6" rx="0.799" ry="1.6" transform="matrix(0.476, -0.879, 0.879, 0.476, 94.543, 133.411)" fill="#8ed16f"/>
    <ellipse id="椭圆_369" data-name="椭圆 369" cx="0.799" cy="1.6" rx="0.799" ry="1.6" transform="matrix(0.476, -0.879, 0.879, 0.476, 94.543, 133.411)" opacity="0.1"/>
    <rect id="矩形_323" data-name="矩形 323" width="3.899" height="7.6" transform="translate(88.442 135.059) rotate(-79.49)" fill="#8ed16f"/>
    <rect id="矩形_324" data-name="矩形 324" width="3.899" height="7.6" transform="translate(88.442 135.059) rotate(-79.49)" opacity="0.05"/>
    <ellipse id="椭圆_370" data-name="椭圆 370" cx="0.799" cy="1.6" rx="0.799" ry="1.6" transform="translate(90.804 134.378) rotate(-79.49)" fill="#8ed16f"/>
    <ellipse id="椭圆_371" data-name="椭圆 371" cx="0.799" cy="1.6" rx="0.799" ry="1.6" transform="translate(90.804 134.378) rotate(-79.49)" opacity="0.1"/>
    <rect id="矩形_325" data-name="矩形 325" width="3.899" height="7.6" transform="translate(89.129 137.358) rotate(-79.49)" fill="#8ed16f"/>
    <ellipse id="椭圆_372" data-name="椭圆 372" cx="0.799" cy="1.6" rx="0.799" ry="1.6" transform="translate(91.489 136.677) rotate(-79.49)" fill="#8ed16f"/>
    <ellipse id="椭圆_373" data-name="椭圆 373" cx="0.799" cy="1.6" rx="0.799" ry="1.6" transform="translate(91.489 136.677) rotate(-79.49)" opacity="0.1"/>
    <rect id="矩形_326" data-name="矩形 326" width="3.899" height="7.6" transform="matrix(0.476, -0.879, 0.879, 0.476, 99.818, 143.189)" fill="#8ed16f"/>
    <ellipse id="椭圆_374" data-name="椭圆 374" cx="0.799" cy="1.6" rx="0.799" ry="1.6" transform="matrix(0.476, -0.879, 0.879, 0.476, 102.281, 143.268)" fill="#8ed16f"/>
    <ellipse id="椭圆_375" data-name="椭圆 375" cx="0.799" cy="1.6" rx="0.799" ry="1.6" transform="matrix(0.476, -0.879, 0.879, 0.476, 102.281, 143.268)" opacity="0.1"/>
    <rect id="矩形_327" data-name="矩形 327" width="3.899" height="7.6" transform="translate(96.177 144.913) rotate(-79.49)" fill="#8ed16f"/>
    <rect id="矩形_328" data-name="矩形 328" width="3.899" height="7.6" transform="translate(96.177 144.913) rotate(-79.49)" opacity="0.05"/>
    <ellipse id="椭圆_376" data-name="椭圆 376" cx="0.799" cy="1.6" rx="0.799" ry="1.6" transform="translate(98.54 144.232) rotate(-79.49)" fill="#8ed16f"/>
    <ellipse id="椭圆_377" data-name="椭圆 377" cx="0.799" cy="1.6" rx="0.799" ry="1.6" transform="translate(98.54 144.232) rotate(-79.49)" opacity="0.1"/>
    <rect id="矩形_329" data-name="矩形 329" width="3.899" height="7.6" transform="translate(96.863 147.215) rotate(-79.49)" fill="#8ed16f"/>
    <ellipse id="椭圆_378" data-name="椭圆 378" cx="0.799" cy="1.6" rx="0.799" ry="1.6" transform="translate(99.228 146.533) rotate(-79.49)" fill="#8ed16f"/>
    <ellipse id="椭圆_379" data-name="椭圆 379" cx="0.799" cy="1.6" rx="0.799" ry="1.6" transform="translate(99.228 146.533) rotate(-79.49)" opacity="0.1"/>
    <rect id="矩形_330" data-name="矩形 330" width="3.899" height="7.6" transform="matrix(0.476, -0.879, 0.879, 0.476, 111.42, 136.837)" fill="#8ed16f"/>
    <ellipse id="椭圆_380" data-name="椭圆 380" cx="0.799" cy="1.6" rx="0.799" ry="1.6" transform="matrix(0.476, -0.879, 0.879, 0.476, 113.885, 136.915)" fill="#8ed16f"/>
    <ellipse id="椭圆_381" data-name="椭圆 381" cx="0.799" cy="1.6" rx="0.799" ry="1.6" transform="matrix(0.476, -0.879, 0.879, 0.476, 113.885, 136.915)" opacity="0.1"/>
    <rect id="矩形_331" data-name="矩形 331" width="3.899" height="7.6" transform="translate(107.778 138.562) rotate(-79.49)" fill="#8ed16f"/>
    <rect id="矩形_332" data-name="矩形 332" width="3.899" height="7.6" transform="translate(107.778 138.562) rotate(-79.49)" opacity="0.05"/>
    <ellipse id="椭圆_382" data-name="椭圆 382" cx="0.799" cy="1.6" rx="0.799" ry="1.6" transform="translate(110.147 137.881) rotate(-79.49)" fill="#8ed16f"/>
    <ellipse id="椭圆_383" data-name="椭圆 383" cx="0.799" cy="1.6" rx="0.799" ry="1.6" transform="translate(110.147 137.881) rotate(-79.49)" opacity="0.1"/>
    <rect id="矩形_333" data-name="矩形 333" width="3.899" height="7.6" transform="translate(108.464 140.864) rotate(-79.49)" fill="#8ed16f"/>
    <ellipse id="椭圆_384" data-name="椭圆 384" cx="0.799" cy="1.6" rx="0.799" ry="1.6" transform="translate(110.835 140.183) rotate(-79.49)" fill="#8ed16f"/>
    <ellipse id="椭圆_385" data-name="椭圆 385" cx="0.799" cy="1.6" rx="0.799" ry="1.6" transform="translate(110.835 140.183) rotate(-79.49)" opacity="0.1"/>
  </g>
</svg>
