<svg xmlns="http://www.w3.org/2000/svg" xmlns:xlink="http://www.w3.org/1999/xlink" width="73" height="70" viewBox="0 0 73 70">
  <defs>
    <clipPath id="clip-path">
      <rect id="矩形_95" data-name="矩形 95" width="73" height="70" transform="translate(3521 964.494)" fill="#fff" stroke="#707070" stroke-width="1"/>
    </clipPath>
  </defs>
  <g id="蒙版组_9" data-name="蒙版组 9" transform="translate(-3521 -964.494)" clip-path="url(#clip-path)">
    <g id="undraw_mathematics_-4-otb" transform="translate(3523.619 969.76)">
      <path id="路径_493" data-name="路径 493" d="M79.265,42.689c0,2.664-14.43,4.824-32.232,4.824S14.8,45.353,14.8,42.689c0-1.886,7.233-3.52,17.775-4.313,4.347-.328,9.259-.511,14.456-.511,2.137,0,4.224.031,6.244.09C68.09,38.391,79.265,40.344,79.265,42.689Z" transform="translate(-14.802 17.222)" fill="#e6e6e6"/>
      <ellipse id="椭圆_101" data-name="椭圆 101" cx="12.373" cy="1.504" rx="12.373" ry="1.504" transform="translate(15.7 57.887)" opacity="0.1"/>
      <ellipse id="椭圆_102" data-name="椭圆 102" cx="11.697" cy="12.449" rx="11.697" ry="12.449" transform="translate(16.324 35.583)" fill="#3f3d56"/>
      <rect id="矩形_94" data-name="矩形 94" width="7.278" height="6.639" transform="translate(24.434 55.398)" fill="#5683aa"/>
      <path id="路径_494" data-name="路径 494" d="M21.706,32.959l-.416,2.282,2.7.415,1.768-1.037-.1-1.66Z" transform="translate(19.519 24.047)" fill="#575a89"/>
      <path id="路径_495" data-name="路径 495" d="M29.6,16.495s-.208,2.386-.728,2.49,1.144,4.253,1.144,4.253h2.5l1.975-.519-.936-2.282s-1.248-1.66-.312-3.008S29.6,16.495,29.6,16.495Z" transform="translate(-1.995 -2.334)" fill="#a0616a"/>
      <path id="路径_496" data-name="路径 496" d="M29.6,16.495s-.208,2.386-.728,2.49,1.144,4.253,1.144,4.253h2.5l1.975-.519-.936-2.282s-1.248-1.66-.312-3.008S29.6,16.495,29.6,16.495Z" transform="translate(-1.995 -2.334)" opacity="0.1"/>
      <path id="路径_497" data-name="路径 497" d="M27.147,26.211s-2.7,5.187-.52,6.224,2.7.934,2.7,1.245-.416.207-.208.726-.416,2.594.208,3.838a3.542,3.542,0,0,1,.416,2.179,1.674,1.674,0,0,0,.208.519c.208.415.312.726.208.934s-.728,1.556-.1,1.867,3.847.519,4.159,0-.312-.83,0-1.141.52-.415.312-.622a15.228,15.228,0,0,1-.416-2.8,16.023,16.023,0,0,0,.312-3.423c-.208-.415-.52-.83-.312-1.141s.416-.207.52-.622.312-1.349.312-1.349l1.144-.1,2.7.519s3.015,3.32,6.342,4.357c0,0,.936.934,1.248.934s.312,0,.208.207-.416.207-.208.415.52-.1.312.207-.416.311-.208.519-.1,1.349-.1,1.452S45.447,51,45.759,51.212s4.679.83,4.991,0a2.728,2.728,0,0,0-.208-1.867S52.1,36.9,51.685,36.066s-1.872-4.565-9.669-6.951c0,0-2.183-.415-2.183-.726s-.208-2.282-.624-2.386S36.4,25.8,36.4,25.8l-3.015.934L29.227,26Z" transform="translate(-4.741 6.208)" fill="#2f2e41"/>
      <path id="路径_498" data-name="路径 498" d="M28.714,35.274l-.52,1.867s-.416,3.008.1,3.735a3.271,3.271,0,0,0,2.49,1.391,1.671,1.671,0,0,0,1.745-1.153.518.518,0,0,0,.029-.134c0-.207-.312-2.7-.312-2.7l-.52-2.594-.1-.726Z" transform="translate(-2.669 14.573)" fill="#2f2e41"/>
      <path id="路径_499" data-name="路径 499" d="M36.709,40.249s-.52-.519-.624,0-.52,2.7.208,2.8,7.694,1.141,8.422.726,2.079-1.037,1.248-1.349-3.223-1.245-3.223-1.245a21.12,21.12,0,0,0-1.56-1.867,3.014,3.014,0,0,0-1.872.519A6.919,6.919,0,0,1,36.709,40.249Z" transform="translate(4.516 18.521)" fill="#2f2e41"/>
      <ellipse id="椭圆_103" data-name="椭圆 103" cx="3.223" cy="3.216" rx="3.223" ry="3.216" transform="translate(26.877 9.907)" fill="#a0616a"/>
      <path id="路径_500" data-name="路径 500" d="M34.188,21.7l-1.248-1.349-1.383-2.7s-1.008-.311-1.216.207-3.951,2.179-3.951,2.179.936,8.714.52,9.544-1.144,4.15-.52,4.461,3.535,0,4.471.415,3.639.415,4.367-.1.936-.934,1.664-.622c.62.265,2.068-8.793,2.485-11.493a1.228,1.228,0,0,0-.51-1.194c-.933-.653-2.613-1.778-2.911-1.63A13.643,13.643,0,0,0,34.188,21.7Z" transform="translate(-4.4 -1.31)" fill="#575a89"/>
      <path id="路径_501" data-name="路径 501" d="M33.447,19.5h0a1.231,1.231,0,0,1,.926,1.058l.841,7.553s-2.079,4.461-3.119,1.452S33.447,19.5,33.447,19.5Z" transform="translate(0.812 0.467)" fill="#575a89"/>
      <path id="路径_502" data-name="路径 502" d="M33.366,24.682l2.287-.622s.416,2.9.832,2.9-1.456,1.66-2.391,1.452-2.287-.934-2.391-1.452a10.035,10.035,0,0,1,.936-2.7Z" transform="translate(0.685 4.624)" fill="#575a89"/>
      <path id="路径_503" data-name="路径 503" d="M30.243,19.942c.219-.482.181-1.045.362-1.542a1.845,1.845,0,0,1,2.8-.869c.233.166.467.4.751.367.306-.034.58-.375.861-.25.312.139.228.7.544.826a.4.4,0,0,0,.459-.188,1.163,1.163,0,0,0,.134-.516,2.465,2.465,0,0,0-.109-1.312,3.138,3.138,0,0,1-.211-.424,1.448,1.448,0,0,1-.04-.419,2.992,2.992,0,0,0-.3-1.512,2.2,2.2,0,0,0-1.39-.957,5.316,5.316,0,0,0-1.726-.069,4.964,4.964,0,0,0-2.7.844,1.054,1.054,0,0,0-.259.272,1.4,1.4,0,0,0-.138.4,8.231,8.231,0,0,1-.724,1.9,4.109,4.109,0,0,0-.374.806,1.041,1.041,0,0,0,.092.857,3.282,3.282,0,0,0,.523.47c.169.162.248.474.435.6.163.107.359.031.525.145C29.976,19.506,29.992,19.826,30.243,19.942Z" transform="translate(-2.577 -5.432)" fill="#2f2e41"/>
      <path id="路径_504" data-name="路径 504" d="M30.614,20.831l.312-.622S35.5,21.557,36.436,22.8c0,0,2.287-1.452,3.535-1.245l1.248.207-3.847,3.423-4.887-.415Z" transform="translate(-0.306 1.11)" fill="#f2f2f2"/>
      <path id="路径_505" data-name="路径 505" d="M32.544,20.209l-4.263,5.913,6.134,3.008a1.057,1.057,0,0,0,1.015,0l4.08-1.867,3.847-5.5L39.51,23.736a.911.911,0,0,0-1.248-.415Z" transform="translate(-2.444 1.11)" fill="#4c79a1"/>
      <path id="路径_506" data-name="路径 506" d="M34.171,28.5,35,26.32s1.872-2.386.832-3.527-2.183,3.32-2.183,3.32Z" transform="translate(2.479 3.298)" fill="#a0616a"/>
      <path id="路径_507" data-name="路径 507" d="M28.916,27.652l1.815-1.468s2.819-1.127,2.493-2.635-3.558,1.779-3.558,1.779Z" transform="translate(-1.862 3.797)" fill="#a0616a"/>
      <path id="路径_508" data-name="路径 508" d="M27.762,20.345h-.1s-1.612-1.919-1.923.674-1.352,11.2,1.352,11.515a6.583,6.583,0,0,0,4.627-1.3s1.975-3.008,1.248-3.008a19.6,19.6,0,0,0-2.183-.1c-.932.058-1.769.32-1.716.052C29.165,27.659,30.673,21.071,27.762,20.345Z" transform="translate(-5.199 0.611)" opacity="0.1"/>
      <path id="路径_509" data-name="路径 509" d="M27.854,19.06l-.416-.207s-1.664.311-1.975,2.9-1.352,11.2,1.352,11.515a25,25,0,0,0,6.342-.415s.728-3.942,0-3.942-4.471.519-4.367,0S30.765,19.786,27.854,19.06Z" transform="translate(-5.448 -0.127)" fill="#575a89"/>
      <path id="路径_510" data-name="路径 510" d="M18.334,19.991l1.147-1.753.725,2.894-1.872.83Z" transform="translate(16.809 10.613)" fill="#575a89"/>
      <ellipse id="椭圆_104" data-name="椭圆 104" cx="2.807" cy="2.801" rx="2.807" ry="2.801" transform="translate(8.783 0)" fill="#ffc4c4"/>
      <path id="路径_511" data-name="路径 511" d="M0,0H6.654V6.639H0Z" transform="translate(8.263 23.653)" fill="#c9e4f9"/>
      <path id="路径_512" data-name="路径 512" d="M21.79,0l1.684,2.911,1.684,2.911H18.421l1.684-2.911Z" transform="translate(25.582 7.302)" fill="#f9f39a"/>
    </g>
  </g>
</svg>
