<svg xmlns="http://www.w3.org/2000/svg" width="151.627" height="68.522" viewBox="0 0 151.627 68.522"><g transform="translate(0 0.02)"><rect width="4.583" height="15.864" transform="translate(132.502 27.588)" fill="#f2f2f2"/><path d="M659.248,192.312,648.1,179.052l-22.374.2-13.572,13.22.274.176h-.1v27.5h46.886v-27.5Z" transform="translate(-519.137 -151.844)" fill="#f2f2f2"/><path d="M771.079,179.238l-13.925,16.325v24.744h25.029V192.458Z" transform="translate(-642.102 -152.002)" fill="#e6e6e6"/><rect width="5.112" height="4.518" transform="translate(125.099 54.621)" fill="#3f3d56"/><rect width="5.112" height="4.446" transform="translate(125.099 46.801)" fill="#3f3d56"/><rect width="5.112" height="4.518" transform="translate(125.099 54.621)" fill="#fff"/><rect width="5.112" height="4.446" transform="translate(125.099 46.801)" fill="#fff"/><rect width="5.112" height="4.518" transform="translate(102.382 53.422)" fill="#fff"/><rect width="5.112" height="4.446" transform="translate(102.382 45.602)" fill="#fff"/><rect width="4.583" height="15.864" transform="translate(96.337 27.588)" fill="#f2f2f2"/><path d="M421.248,192.312,410.1,179.052l-22.374.2-13.572,13.22.274.176h-.1v27.5h46.886v-27.5Z" transform="translate(-317.302 -151.844)" fill="#f2f2f2"/><path d="M533.079,179.238l-13.925,16.325v24.744h25.029V192.458Z" transform="translate(-440.267 -152.002)" fill="#e6e6e6"/><rect width="5.112" height="4.518" transform="translate(88.934 54.621)" fill="#3f3d56"/><rect width="5.112" height="4.446" transform="translate(88.934 46.801)" fill="#3f3d56"/><rect width="5.112" height="4.518" transform="translate(88.934 54.621)" fill="#fff"/><rect width="5.112" height="4.446" transform="translate(88.934 46.801)" fill="#fff"/><rect width="5.112" height="4.518" transform="translate(66.218 53.422)" fill="#fff"/><rect width="5.112" height="4.446" transform="translate(66.218 45.602)" fill="#fff"/><rect width="6.124" height="21.198" transform="translate(57.765 13.898)" fill="#f2f2f2"/><path d="M95.877,105.831,80.983,88.112l-29.9.273L32.951,106.05l.366.236h-.131v36.743H95.837V106.285Z" transform="translate(-27.944 -74.723)" fill="#f2f2f2"/><path d="M245.309,88.36,226.7,110.175v33.064h33.445V106.025Z" transform="translate(-192.254 -74.933)" fill="#e6e6e6"/><rect width="6.83" height="6.037" transform="translate(47.873 50.02)" fill="#3f3d56"/><rect width="6.83" height="5.941" transform="translate(47.873 39.57)" fill="#3f3d56"/><rect width="6.83" height="6.037" transform="translate(47.873 50.02)" fill="#fff"/><rect width="6.83" height="5.941" transform="translate(47.873 39.57)" fill="#fff"/><rect width="6.83" height="6.037" transform="translate(17.519 48.418)" fill="#fff"/><rect width="6.83" height="5.941" transform="translate(17.519 37.968)" fill="#fff"/><rect width="146.475" height="0.304" transform="translate(0 68.169)" fill="#3f3d56"/><ellipse cx="4.422" cy="9.022" rx="4.422" ry="9.022" transform="translate(18.656 44.537)" fill="#3f3d56"/><path d="M251.214,555.279a73.522,73.522,0,0,1,0-21.318l.344.058a73.148,73.148,0,0,0,0,21.2Z" transform="translate(-227.728 -486.952)" fill="#5d83a6"/><rect width="4.534" height="0.349" transform="translate(22.972 53.758) rotate(-28.142)" fill="#5d83a6"/><rect width="0.349" height="4.535" transform="translate(18.752 52.998) rotate(-61.842)" fill="#5d83a6"/><ellipse cx="8.648" cy="17.646" rx="8.648" ry="17.646" transform="translate(3.805 21.999)" fill="#5f8eb7"/><path d="M180.74,443.012c-3.459-20.754-.035-41.433,0-41.64l.344.058c-.035.206-3.449,20.829,0,41.524Z" transform="translate(-167.324 -374.51)" fill="#3f3d56"/><rect width="8.869" height="0.349" transform="translate(12.325 40.181) rotate(-28.142)" fill="#3f3d56"/><rect width="0.349" height="8.869" transform="translate(4.072 38.402) rotate(-61.842)" fill="#3f3d56"/><ellipse cx="11.835" cy="24.147" rx="11.835" ry="24.147" transform="translate(21.102 4.877)" fill="#5f8eb7"/><path d="M315.12,357.513c-4.732-28.39-.048-56.677,0-56.96l.344.058c-.048.282-4.722,28.513,0,56.844Z" transform="translate(-280.802 -289.011)" fill="#3f3d56"/><rect width="12.137" height="0.349" transform="translate(32.792 29.814) rotate(-28.142)" fill="#3f3d56"/><rect width="0.349" height="12.137" transform="translate(21.497 27.265) rotate(-61.847)" fill="#3f3d56"/><ellipse cx="4.422" cy="9.022" rx="4.422" ry="9.022" transform="translate(127.934 44.537)" fill="#3f3d56"/><path d="M967.489,555.279a73.532,73.532,0,0,0,0-21.318l-.345.058a73.146,73.146,0,0,1,0,21.2Z" transform="translate(-835.541 -486.952)" fill="#5d83a6"/><rect width="0.349" height="4.534" transform="translate(128.297 51.928) rotate(-61.858)" fill="#5d83a6"/><rect width="4.535" height="0.349" transform="translate(132.518 54.831) rotate(-28.158)" fill="#5d83a6"/><ellipse cx="8.648" cy="17.646" rx="8.648" ry="17.646" transform="translate(134.331 21.999)" fill="#5f8eb7"/><path d="M1033.76,443.012c3.459-20.754.035-41.433,0-41.64l-.344.058c.035.206,3.449,20.829,0,41.524Z" transform="translate(-891.74 -374.51)" fill="#3f3d56"/><rect width="0.349" height="8.869" transform="translate(135.121 36.307) rotate(-61.858)" fill="#3f3d56"/><rect width="8.869" height="0.349" transform="translate(143.377 42.278) rotate(-28.158)" fill="#3f3d56"/><ellipse cx="11.835" cy="24.147" rx="11.835" ry="24.147" transform="translate(110.662 4.877)" fill="#5f8eb7"/><path d="M896.2,357.513c4.732-28.39.048-56.677,0-56.96l-.344.058c.048.282,4.722,28.513,0,56.844Z" transform="translate(-775.086 -289.011)" fill="#3f3d56"/><rect width="0.349" height="12.137" transform="translate(111.774 24.399) rotate(-61.858)" fill="#3f3d56"/><rect width="12.137" height="0.349" transform="translate(123.07 32.685) rotate(-28.153)" fill="#3f3d56"/><path d="M679.008,319.731l1.4-1.119a1.482,1.482,0,0,0-1.716.942,2.383,2.383,0,0,0-1.773.109l2.8,1.016a2.117,2.117,0,0,0-.709-.949Z" transform="translate(-589.416 -304.312)" fill="#3f3d56"/><path d="M454.008,254.731l1.4-1.119a1.482,1.482,0,0,0-1.716.942,2.383,2.383,0,0,0-1.773.109l2.8,1.016a2.118,2.118,0,0,0-.711-.948Z" transform="translate(-398.606 -249.189)" fill="#3f3d56"/><path d="M821.008,225.731l1.4-1.119a1.482,1.482,0,0,0-1.716.942,2.383,2.383,0,0,0-1.773.109l2.8,1.016a2.118,2.118,0,0,0-.711-.948Z" transform="translate(-709.839 -224.596)" fill="#3f3d56"/><path d="M824.122,659.954a2.116,2.116,0,0,0-1.059.284,2.277,2.277,0,0,0-3.8,1.691h6.982A2.126,2.126,0,0,0,824.122,659.954Z" transform="translate(-710.129 -593.542)" fill="#3f3d56"/><path d="M357.123,659.954a2.115,2.115,0,0,0-1.059.284,2.277,2.277,0,0,0-3.8,1.691h6.982A2.126,2.126,0,0,0,357.123,659.954Z" transform="translate(-314.091 -593.542)" fill="#3f3d56"/><path d="M596.122,659.954a2.116,2.116,0,0,0-1.059.284,2.277,2.277,0,0,0-3.8,1.691h6.982A2.126,2.126,0,0,0,596.122,659.954Z" transform="translate(-516.774 -593.542)" fill="#3f3d56"/><path d="M359.335,404.228H339.191v.65h3.142v6.173h.65v-6.173h12.236v6.173h.65v-6.173h3.466Z" transform="translate(-287.65 -342.804)" fill="#3f3d56"/><rect width="20.144" height="0.65" transform="translate(51.581 59.48)" fill="#3f3d56"/><rect width="20.144" height="0.65" transform="translate(51.581 57.855)" fill="#3f3d56"/><rect width="20.144" height="0.65" transform="translate(51.581 56.231)" fill="#3f3d56"/><path d="M566.335,404.228H546.191v.65h3.142v6.173h.65v-6.173h12.236v6.173h.65v-6.173h3.466Z" transform="translate(-463.196 -342.804)" fill="#3f3d56"/><rect width="20.144" height="0.65" transform="translate(83.035 59.48)" fill="#3f3d56"/><rect width="20.144" height="0.65" transform="translate(83.035 57.855)" fill="#3f3d56"/><rect width="20.144" height="0.65" transform="translate(83.035 56.231)" fill="#3f3d56"/></g></svg>