<svg xmlns="http://www.w3.org/2000/svg" width="70.877" height="71.82" viewBox="0 0 70.877 71.82"><ellipse cx="22.452" cy="1.494" rx="22.452" ry="1.494" transform="translate(0 68.832)" fill="#e6e6e6"/><path d="M50.793,48.182a3.081,3.081,0,0,1,2.5-2.187,11.517,11.517,0,0,1,4-.137c2.66.293,5.273,1.083,7.972.961a13.722,13.722,0,0,0,6.6-2.059,12.7,12.7,0,0,0,5.983-11.705c-.022-.286-.056-.571-.1-.855-.03-.2-.348-.117-.318.085a12.265,12.265,0,0,1-.96,6.732,12.392,12.392,0,0,1-4.37,5.206,13.4,13.4,0,0,1-6.5,2.256c-2.665.189-5.255-.554-7.874-.891a13.606,13.606,0,0,0-3.993-.01,4.066,4.066,0,0,0-2.971,1.756,2.424,2.424,0,0,0-.282.763c-.037.2.281.288.318.085Z" transform="translate(-19.39 -6.18)" fill="#769fc2"/><ellipse cx="13.757" cy="13.339" rx="13.757" ry="13.339" transform="translate(43.363 0)" fill="#5f8eb7"/><ellipse cx="3.522" cy="3.415" rx="3.522" ry="3.415" transform="translate(48.426 7.257)" fill="#fff"/><ellipse cx="1.871" cy="1.814" rx="1.871" ry="1.814" transform="translate(48.756 9.978)" fill="#3f3d56"/><ellipse cx="0.44" cy="0.427" rx="0.44" ry="0.427" transform="translate(50.847 10.618)" fill="#fff"/><ellipse cx="3.522" cy="3.415" rx="3.522" ry="3.415" transform="translate(59.872 7.31)" fill="#fff"/><ellipse cx="1.871" cy="1.814" rx="1.871" ry="1.814" transform="translate(60.202 9.978)" fill="#3f3d56"/><ellipse cx="0.44" cy="0.427" rx="0.44" ry="0.427" transform="translate(62.293 10.618)" fill="#fff"/><rect width="2.421" height="1.814" transform="translate(56.901 25.932)" fill="#456988"/><path d="M45.145,62.266s1.554,4.412.888,6.026l2,1.722,1.221-1.506s-1.332-1.291-1.221-2.26.222-4.412.222-4.412Z" transform="translate(-20.573 -0.678)" fill="#ffb9b9"/><path d="M52.56,70l-.257.145H45.415a.349.349,0,0,1-.179-.36c.032-.16.114-.484.216-.858a6.719,6.719,0,0,1,.673-1.918h0c.107.192.329,1.053.885.946s1.443-.323,1.443-.323-.317-.69-.014-.969a.43.43,0,0,1,.236-.107c.666-.107.666.861.666.861l2.441,1.291a4.14,4.14,0,0,1,.614.218C52.894,69.153,53.383,69.537,52.56,70Z" transform="translate(-20.553 0.194)" fill="#2f2e41"/><path d="M42.178,60.836l-2.885,3.336-.777,1.722,1,.753.888-.323s.777-1.937,1.554-2.26a14.732,14.732,0,0,0,2.663-2.475Z" transform="translate(-22.045 -0.863)" fill="#ffb9b9"/><path d="M47.755,58.906l-1.472,2.645-1.054,1.894a1.749,1.749,0,0,1-1.271.076,4.972,4.972,0,0,1-.661-.214,12.929,12.929,0,0,1-2.66-1.565l2.535-3.071.828-1,.2-.239.947.393,1.67.692Z" transform="translate(-21.574 -1.493)" fill="#2f2e41"/><path d="M41.3,39.517l-1.175,4.675,1.21,6s.03,2.452,1.139,2.266-.053-2.659-.053-2.659l-.542-4.918,1.734-4.859a.882.882,0,0,0-.444-1.057h0a1.3,1.3,0,0,0-1.869.552Z" transform="translate(-21.687 -4.942)" fill="#ffb9b9"/><path d="M44.988,36.079l-1,3.013L42.1,38.124a23.033,23.033,0,0,0,.777-2.475C42.879,35.326,44.988,36.079,44.988,36.079Z" transform="translate(-21.248 -5.535)" fill="#ffb9b9"/><ellipse cx="2.33" cy="2.26" rx="2.33" ry="2.26" transform="translate(20.632 27.209)" fill="#ffb9b9"/><path d="M45.138,39.49l-.444-.43-.111-.538s-1.443-1.829-2.663-1.184a2.239,2.239,0,0,0-.876,1.209,5.71,5.71,0,0,0,.139,4.37l1.957,4.427,4.439-.43-.777-2.8a2.512,2.512,0,0,0-.666-2.9Z" transform="translate(-21.565 -5.234)" fill="#598bb5"/><path d="M47.153,58.906l-1.471,2.645-1.054,1.894a1.749,1.749,0,0,1-1.271.076c-.084-.544.419-3.422.023-5.768l.018-.084.2-.239.947.393,1.67.692Z" transform="translate(-20.972 -1.493)" opacity="0.3"/><path d="M47.507,45.273s-2.885-1.722-4.883.43l.111.646s-1.665,1.829-.666,5.7,2.552,13.988,2.552,13.988,3.662.215,5.327-.968c0,0-.555-13.343-2.441-14.634Z" transform="translate(-21.326 -3.861)" fill="#2f2e41"/><path d="M41.572,40.4,44.7,44.136l5.66,2.69s2.033,1.459,2.55.49S50.7,45.75,50.7,45.75L46.327,43.2l-2.944-4.276a.938.938,0,0,0-1.137-.3h0a1.227,1.227,0,0,0-.674,1.776Z" transform="translate(-21.407 -4.984)" fill="#ffb9b9"/><path d="M40.515,65.631s.68-.83,1.087-.307-.479.971-.479.971l-.052,2.7s.483,2.061-.821,1.265-1.356-.892-1.613-1.369a26.792,26.792,0,0,0-1.245-3.011c-.458-.618-.877-1.862-.334-2.016a13.521,13.521,0,0,1,2.949-.518c-.126.182-.811.771-.456,1.2S40.515,65.631,40.515,65.631Z" transform="translate(-22.425 -0.406)" fill="#2f2e41"/><path d="M46,33.952v-.008a3.22,3.22,0,1,0-3.218,3.12c.075,0,.37.543.444.538C43.226,35.955,44.325,34.063,46,33.952Z" transform="translate(-21.813 -6.413)" fill="#2f2e41"/><ellipse cx="2.109" cy="2.044" rx="2.109" ry="2.044" transform="translate(15.417 23.12)" fill="#2f2e41"/><path d="M39.3,28.859a2.087,2.087,0,0,1,2.1,1.747,2.041,2.041,0,0,1-1.5,2.255,2.111,2.111,0,0,0,1.915-1.2,1.994,1.994,0,0,0-.329-2.186,2.149,2.149,0,0,0-2.186-.616Z" transform="translate(-21.871 -6.791)" fill="#2f2e41"/><path d="M18.337,22.69h1.689a1.4,1.4,0,0,1,1.418,1.375v.562H18.337Z" transform="translate(4.071 4.196)" fill="#2f2e41"/></svg>